<?xml version="1.0" encoding="UTF-8" standalone="no"?>
<!-- Generator: Adobe Illustrator 23.0.3, SVG Export Plug-In . SVG Version: 6.00 Build 0)  -->

<svg
   version="1.1"
   id="Layer_1"
   x="0px"
   y="0px"
   viewBox="0 0 264 280"
   style="enable-background:new 0 0 264 280;"
   xml:space="preserve"
   sodipodi:docname="avataaars.svg"
   inkscape:version="1.1.2 (b8e25be833, 2022-02-05)"
   xmlns:inkscape="http://www.inkscape.org/namespaces/inkscape"
   xmlns:sodipodi="http://sodipodi.sourceforge.net/DTD/sodipodi-0.dtd"
   xmlns="http://www.w3.org/2000/svg"
   xmlns:svg="http://www.w3.org/2000/svg"><defs
   id="defs181" /><sodipodi:namedview
   id="namedview179"
   pagecolor="#ffffff"
   bordercolor="#666666"
   borderopacity="1.0"
   inkscape:pageshadow="2"
   inkscape:pageopacity="0.0"
   inkscape:pagecheckerboard="0"
   showgrid="false"
   inkscape:object-paths="false"
   inkscape:zoom="5.9357143"
   inkscape:cx="161.31167"
   inkscape:cy="19.037304"
   inkscape:window-width="1920"
   inkscape:window-height="1017"
   inkscape:window-x="-8"
   inkscape:window-y="-8"
   inkscape:window-maximized="1"
   inkscape:current-layer="layer1" />
<style
   type="text/css"
   id="style2">
	.st0{fill-rule:evenodd;clip-rule:evenodd;fill:#E6E6E6;}
	.st1{filter:url(#Adobe_OpacityMaskFilter);}
	.st2{fill-rule:evenodd;clip-rule:evenodd;fill:#FFFFFF;}
	.st3{mask:url(#mask-2_1_);}
	.st4{fill-rule:evenodd;clip-rule:evenodd;fill:#2C3E50;}
	.st5{filter:url(#Adobe_OpacityMaskFilter_1_);}
	.st6{mask:url(#mask-4_1_);}
	.st7{fill-rule:evenodd;clip-rule:evenodd;fill:#D0C6AC;}
	.st8{filter:url(#Adobe_OpacityMaskFilter_2_);}
	.st9{mask:url(#mask-6_1_);}
	.st10{fill-rule:evenodd;clip-rule:evenodd;fill:#EDB98A;}
	.st11{filter:url(#Adobe_OpacityMaskFilter_3_);}
	.st12{mask:url(#mask-6_2_);fill-rule:evenodd;clip-rule:evenodd;fill-opacity:0.1;}
	.st13{filter:url(#Adobe_OpacityMaskFilter_4_);}
	.st14{mask:url(#react-mask-952_1_);}
	.st15{filter:url(#Adobe_OpacityMaskFilter_5_);}
	.st16{opacity:0.6;mask:url(#react-mask-952_2_);}
	.st17{fill-rule:evenodd;clip-rule:evenodd;fill-opacity:0.16;}
	.st18{fill-rule:evenodd;clip-rule:evenodd;fill-opacity:0.7;}
	.st19{filter:url(#Adobe_OpacityMaskFilter_6_);}
	.st20{mask:url(#react-mask-934_1_);fill-rule:evenodd;clip-rule:evenodd;fill:#FFFFFF;}
	.st21{filter:url(#Adobe_OpacityMaskFilter_7_);}
	.st22{mask:url(#react-mask-934_2_);}
	.st23{fill-rule:evenodd;clip-rule:evenodd;fill:#FF4F6D;}
	.st24{fill-rule:evenodd;clip-rule:evenodd;fill-opacity:0.6;}
	.st25{filter:url(#Adobe_OpacityMaskFilter_8_);}
	.st26{mask:url(#react-mask-925_1_);}
	.st27{fill-rule:evenodd;clip-rule:evenodd;fill:#28354B;}
	.st28{filter:url(#Adobe_OpacityMaskFilter_9_);}
	.st29{mask:url(#react-mask-924_1_);}
	.st30{fill-rule:evenodd;clip-rule:evenodd;fill:#4A312C;}
</style>
<desc
   id="desc4">Created with getavataaars.com</desc>
<g
   id="g176">
	<g
   transform="translate(-825.000000, -1100.000000)"
   id="g174">
		<g
   transform="translate(825.000000, 1100.000000)"
   id="g172">
			<g
   id="Circle"
   transform="translate(12.000000, 40.000000)">
				<g
   id="Circle-Background">
					<circle
   class="st0"
   cx="120"
   cy="120"
   r="120"
   id="circle6" />
				</g>
				<defs
   id="defs12">
					<filter
   id="Adobe_OpacityMaskFilter"
   filterUnits="userSpaceOnUse"
   x="0"
   y="0"
   width="240"
   height="240">
						<feColorMatrix
   type="matrix"
   values="1 0 0 0 0  0 1 0 0 0  0 0 1 0 0  0 0 0 1 0"
   id="feColorMatrix9" />
					</filter>
				</defs>
				<mask
   maskUnits="userSpaceOnUse"
   x="0"
   y="0"
   width="240"
   height="240"
   id="mask-2_1_">
					<g
   class="st1"
   id="g15">
						<circle
   id="path-1_1_"
   class="st2"
   cx="120"
   cy="120"
   r="120" />
					</g>
				</mask>
				<g
   class="st3"
   mask="url(#mask-2_1_)"
   id="g20">
					<rect
   class="st4"
   width="240"
   height="240"
   id="rect18" />
				</g>
			</g>
			<g
   id="Mask">
			</g>
			<defs
   id="defs27">
				<filter
   id="Adobe_OpacityMaskFilter_1_"
   filterUnits="userSpaceOnUse"
   x="-1"
   y="0"
   width="265"
   height="280">
					<feColorMatrix
   type="matrix"
   values="1 0 0 0 0  0 1 0 0 0  0 0 1 0 0  0 0 0 1 0"
   id="feColorMatrix24" />
				</filter>
			</defs>
			<mask
   maskUnits="userSpaceOnUse"
   x="-1"
   y="0"
   width="265"
   height="280"
   id="mask-4_1_">
				<g
   class="st5"
   id="g30">
					<path
   id="path-3_1_"
   class="st2"
   d="M12,160c0,66.3,53.7,120,120,120s120-53.7,120-120h12V0H0v160H12z" />
				</g>
			</mask>
			<g
   id="Avataaar"
   class="st6"
   mask="url(#mask-4_1_)">
				<g
   id="Body"
   transform="translate(32.000000, 36.000000)">
					<g
   id="g35">
						<path
   class="st7"
   d="M124,144.6V163h4l0,0c39.8,0,72,32.2,72,72v9H0v-9c0-39.8,32.2-72,72-72l0,0h4v-18.4        c-17.2-8.2-29.6-24.9-31.7-44.7C38.5,99.1,34,94.1,34,88V74c0-5.9,4.3-10.9,10-11.8V56l0,0c0-30.9,25.1-56,56-56l0,0l0,0        c30.9,0,56,25.1,56,56v6.2c5.7,1,10,5.9,10,11.8v14c0,6.1-4.5,11.1-10.3,11.9C153.6,119.7,141.2,136.4,124,144.6z"
   id="path33" />
					</g>
					<defs
   id="defs40">
						<filter
   id="Adobe_OpacityMaskFilter_2_"
   filterUnits="userSpaceOnUse"
   x="-32"
   y="0"
   width="264"
   height="244">
							<feColorMatrix
   type="matrix"
   values="1 0 0 0 0  0 1 0 0 0  0 0 1 0 0  0 0 0 1 0"
   id="feColorMatrix37" />
						</filter>
					</defs>
					<mask
   maskUnits="userSpaceOnUse"
   x="-32"
   y="0"
   width="264"
   height="244"
   id="mask-6_1_">
						<g
   class="st8"
   id="g43">
							<path
   id="path-5_1_"
   class="st2"
   d="M124,144.6V163h4l0,0c39.8,0,72,32.2,72,72v9H0v-9c0-39.8,32.2-72,72-72l0,0h4v-18.4         c-17.2-8.2-29.6-24.9-31.7-44.7C38.5,99.1,34,94.1,34,88V74c0-5.9,4.3-10.9,10-11.8V56l0,0c0-30.9,25.1-56,56-56l0,0l0,0         c30.9,0,56,25.1,56,56v6.2c5.7,1,10,5.9,10,11.8v14c0,6.1-4.5,11.1-10.3,11.9C153.6,119.7,141.2,136.4,124,144.6z" />
						</g>
					</mask>
					<g
   class="st9"
   mask="url(#mask-6_1_)"
   id="g49">
						<g
   id="Color"
   transform="translate(-32.000000, 0.000000)">
							<rect
   class="st10"
   width="264"
   height="244"
   id="rect46" />
						</g>
					</g>
					<defs
   id="defs54">
						<filter
   id="Adobe_OpacityMaskFilter_3_"
   filterUnits="userSpaceOnUse"
   x="44"
   y="79"
   width="112"
   height="79">
							<feColorMatrix
   type="matrix"
   values="1 0 0 0 0  0 1 0 0 0  0 0 1 0 0  0 0 0 1 0"
   id="feColorMatrix51" />
						</filter>
					</defs>
					<mask
   maskUnits="userSpaceOnUse"
   x="44"
   y="79"
   width="112"
   height="79"
   id="mask-6_2_">
						<g
   class="st11"
   id="g57">
							<path
   id="path-5_2_"
   class="st2"
   d="M124,144.6V163h4l0,0c39.8,0,72,32.2,72,72v9H0v-9c0-39.8,32.2-72,72-72l0,0h4v-18.4         c-17.2-8.2-29.6-24.9-31.7-44.7C38.5,99.1,34,94.1,34,88V74c0-5.9,4.3-10.9,10-11.8V56l0,0c0-30.9,25.1-56,56-56l0,0l0,0         c30.9,0,56,25.1,56,56v6.2c5.7,1,10,5.9,10,11.8v14c0,6.1-4.5,11.1-10.3,11.9C153.6,119.7,141.2,136.4,124,144.6z" />
						</g>
					</mask>
					<path
   id="Neck-Shadow"
   class="st12"
   d="M156,79v23c0,30.9-25.1,56-56,56s-56-25.1-56-56V79v15c0,30.9,25.1,56,56,56       s56-25.1,56-56V79z"
   mask="url(#mask-6_2_)" />
				</g>
				<g
   transform="translate(0.000000, 170.000000)"
   id="g92">
					<g
   id="Clothes">
						<path
   class="st0"
   d="M166,29.3c37,3,66,34,66,71.8v8.9H32v-8.9C32,63,61.6,31.8,99,29.2c0,0.4,0,0.7,0,1.1        c0,11.9,15,21.5,33.5,21.5S166,42.2,166,30.3C166,30,166,29.6,166,29.3z"
   id="path62" />
					</g>
					<defs
   id="defs68">
						<filter
   id="Adobe_OpacityMaskFilter_4_"
   filterUnits="userSpaceOnUse"
   x="0"
   y="0"
   width="264"
   height="110">
							<feColorMatrix
   type="matrix"
   values="1 0 0 0 0  0 1 0 0 0  0 0 1 0 0  0 0 0 1 0"
   id="feColorMatrix65" />
						</filter>
					</defs>
					<mask
   maskUnits="userSpaceOnUse"
   x="0"
   y="0"
   width="264"
   height="110"
   id="react-mask-952_1_">
						<g
   class="st13"
   id="g71">
							<path
   id="react-path-951_1_"
   class="st2"
   d="M166,29.3c37,3,66,34,66,71.8v8.9H32v-8.9C32,63,61.6,31.8,99,29.2         c0,0.4,0,0.7,0,1.1c0,11.9,15,21.5,33.5,21.5S166,42.2,166,30.3C166,30,166,29.6,166,29.3z" />
						</g>
					</mask>
					<g
   class="st14"
   mask="url(#react-mask-952_1_)"
   id="g76">
						<rect
   class="st2"
   width="264"
   height="110"
   id="rect74" />
					</g>
					<defs
   id="defs81">
						<filter
   id="Adobe_OpacityMaskFilter_5_"
   filterUnits="userSpaceOnUse"
   x="92.9"
   y="4.9"
   width="79.3"
   height="53.8">
							<feColorMatrix
   type="matrix"
   values="1 0 0 0 0  0 1 0 0 0  0 0 1 0 0  0 0 0 1 0"
   id="feColorMatrix78" />
						</filter>
					</defs>
					<mask
   maskUnits="userSpaceOnUse"
   x="92.9"
   y="4.9"
   width="79.3"
   height="53.8"
   id="react-mask-952_2_">
						<g
   class="st15"
   id="g84">
							<path
   id="react-path-951_2_"
   class="st2"
   d="M166,29.3c37,3,66,34,66,71.8v8.9H32v-8.9C32,63,61.6,31.8,99,29.2         c0,0.4,0,0.7,0,1.1c0,11.9,15,21.5,33.5,21.5S166,42.2,166,30.3C166,30,166,29.6,166,29.3z" />
						</g>
					</mask>
					<g
   id="Shadowy"
   class="st16"
   mask="url(#react-mask-952_2_)">
						<g
   transform="translate(92.000000, 4.000000)"
   id="g89">
							<ellipse
   class="st17"
   cx="40.5"
   cy="27.8"
   rx="39.6"
   ry="26.9"
   id="ellipse87" />
						</g>
					</g>
				</g>
				<g
   id="Face"
   transform="translate(76.000000, 82.000000)">
					<g
   transform="translate(2.000000, 52.000000)"
   id="g123">
						<g
   id="Mouth">
							<path
   class="st18"
   d="M35.1,15.1C36.2,24.6,44.2,32,54,32c9.8,0,17.9-7.4,18.9-17c0.1-0.8-0.8-2-1.8-2c-14.9,0-26.3,0-34,0         C36,13,35,14.2,35.1,15.1z"
   id="path94" />
						</g>
						<defs
   id="defs100">
							<filter
   id="Adobe_OpacityMaskFilter_6_"
   filterUnits="userSpaceOnUse"
   x="39"
   y="2"
   width="31"
   height="16">
								<feColorMatrix
   type="matrix"
   values="1 0 0 0 0  0 1 0 0 0  0 0 1 0 0  0 0 0 1 0"
   id="feColorMatrix97" />
							</filter>
						</defs>
						<mask
   maskUnits="userSpaceOnUse"
   x="39"
   y="2"
   width="31"
   height="16"
   id="react-mask-934_1_">
							<g
   class="st19"
   id="g103">
								<path
   id="react-path-933_1_"
   class="st2"
   d="M35.1,15.1C36.2,24.6,44.2,32,54,32c9.8,0,17.9-7.4,18.9-17          c0.1-0.8-0.8-2-1.8-2c-14.9,0-26.3,0-34,0C36,13,35,14.2,35.1,15.1z" />
							</g>
						</mask>
						<path
   id="Teeth"
   class="st20"
   d="M44,2h21c2.8,0,5,2.2,5,5v6c0,2.8-2.2,5-5,5H44c-2.8,0-5-2.2-5-5V7C39,4.2,41.2,2,44,2z"
   mask="url(#react-mask-934_1_)" />
						<defs
   id="defs110">
							<filter
   id="Adobe_OpacityMaskFilter_7_"
   filterUnits="userSpaceOnUse"
   x="38"
   y="24"
   width="32"
   height="22">
								<feColorMatrix
   type="matrix"
   values="1 0 0 0 0  0 1 0 0 0  0 0 1 0 0  0 0 0 1 0"
   id="feColorMatrix107" />
							</filter>
						</defs>
						<mask
   maskUnits="userSpaceOnUse"
   x="38"
   y="24"
   width="32"
   height="22"
   id="react-mask-934_2_">
							<g
   class="st21"
   id="g113">
								<path
   id="react-path-933_2_"
   class="st2"
   d="M35.1,15.1C36.2,24.6,44.2,32,54,32c9.8,0,17.9-7.4,18.9-17          c0.1-0.8-0.8-2-1.8-2c-14.9,0-26.3,0-34,0C36,13,35,14.2,35.1,15.1z" />
							</g>
						</mask>
						<g
   id="Tongue"
   class="st22"
   mask="url(#react-mask-934_2_)">
							<g
   transform="translate(38.000000, 24.000000)"
   id="g120">
								<circle
   class="st23"
   cx="11"
   cy="11"
   r="11"
   id="circle116" />
								<circle
   class="st23"
   cx="21"
   cy="11"
   r="11"
   id="circle118" />
							</g>
						</g>
					</g>
					<g
   transform="translate(28.000000, 40.000000)"
   id="g126">
						<path
   id="Nose"
   class="st17"
   d="M16,8c0,4.4,5.4,8,12,8l0,0c6.6,0,12-3.6,12-8" />
					</g>
					<g
   transform="translate(0.000000, 8.000000)"
   id="g131">
						<path
   id="Squint"
   class="st24"
   d="M16.2,22.4C18,18.6,22.2,16,27,16c4.8,0,9,2.6,10.8,6.4c0.6,1.1-0.2,2-1,1.4        c-2.5-2.1-5.9-3.4-9.8-3.4c-3.7,0-7.1,1.2-9.6,3.2C16.5,24.3,15.6,23.6,16.2,22.4z" />
						<path
   class="st24"
   d="M74.2,22.4C76,18.6,80.2,16,85,16c4.8,0,9,2.6,10.8,6.4c0.6,1.1-0.2,2-1,1.4c-2.5-2.1-5.9-3.4-9.8-3.4        c-3.7,0-7.1,1.2-9.6,3.2C74.5,24.3,73.6,23.6,74.2,22.4z"
   id="path129" />
					</g>
					<g
   id="g136">
						<path
   id="Eyebrow"
   class="st24"
   d="M26.5,6.1c-5.8,0.3-15.2,4.5-15,10.3c0,0.2,0.3,0.3,0.4,0.1c2.8-3,22.3-5.9,29.2-4.4        c0.6,0.1,1.1-0.5,0.7-0.9C38.5,7.5,31.7,5.9,26.5,6.1" />
						<path
   class="st24"
   d="M86.5,6.1c5.8,0.3,15.2,4.5,15,10.3c0,0.2-0.3,0.3-0.4,0.1c-2.8-3-22.3-5.9-29.2-4.4        c-0.6,0.1-1.1-0.5-0.7-0.9C74.5,7.5,81.3,5.9,86.5,6.1"
   id="path134" />
					</g>
				</g>
				<g
   id="Top">
					<defs
   id="defs142">
						<filter
   id="Adobe_OpacityMaskFilter_8_"
   filterUnits="userSpaceOnUse"
   x="-1"
   y="0"
   width="264"
   height="280">
							<feColorMatrix
   type="matrix"
   values="1 0 0 0 0  0 1 0 0 0  0 0 1 0 0  0 0 0 1 0"
   id="feColorMatrix139" />
						</filter>
					</defs>
					<mask
   maskUnits="userSpaceOnUse"
   x="-1"
   y="0"
   width="264"
   height="280"
   id="react-mask-925_1_">
						<g
   class="st25"
   id="g145">
							<rect
   id="react-path-927_1_"
   class="st2"
   width="264"
   height="280" />
						</g>
					</mask>
					<g
   class="st26"
   mask="url(#react-mask-925_1_)"
   id="g168">
						<g
   transform="translate(-1.000000, 0.000000)"
   id="g166">
							<g
   id="Short-Hair">
								<path
   class="st27"
   d="M183.7,38.9c5.4-5,6.7-15,3.6-21.5c-3.8-8-11.4-9-18.7-5.5c-6.9,3.3-13.1,4.4-20.6,2.8          c-7.3-1.5-14.1-4.3-21.6-4.7C114,9.3,102,13.9,93.6,23.1c-1.6,1.8-2.9,3.8-4.1,5.8c-1,1.6-2.1,3.4-2.5,5.3          c-0.2,0.9,0.2,3.1-0.3,3.8c-0.5,0.8-2.3,1.5-3.1,2.1c-1.6,1.2-2.9,2.5-4.2,4c-2.7,3.2-4.1,6.6-5.4,10.6          c-4.1,13.2-4.5,29,0.9,42c0.7,1.7,2.9,5.4,4.2,1.6c0.3-0.7-0.3-3.2-0.3-3.9c0-2.7,1.5-20.7,8-30.8c2.1-3.3,12-15.6,14-15.7          c1.1,1.7,11.9,12.5,39.9,11.2c12.7-0.6,22.4-6.3,24.7-8.7c1,5.5,13,13.8,14.8,17.2c5.3,9.8,6.4,30.3,8.4,30.3          s3.5-5.2,3.9-6.2c3.1-7.4,3.6-16.6,3.3-24.6C195.5,57,191.3,45.9,183.7,38.9z"
   id="path148" />
							</g>
							<defs
   id="defs154">
								<filter
   id="Adobe_OpacityMaskFilter_9_"
   filterUnits="userSpaceOnUse"
   x="0"
   y="0"
   width="264"
   height="280">
									<feColorMatrix
   type="matrix"
   values="1 0 0 0 0  0 1 0 0 0  0 0 1 0 0  0 0 0 1 0"
   id="feColorMatrix151" />
								</filter>
							</defs>
							<mask
   maskUnits="userSpaceOnUse"
   x="0"
   y="0"
   width="264"
   height="280"
   id="react-mask-924_1_">
								<g
   class="st28"
   id="g157">
									<path
   id="react-path-926_1_"
   class="st2"
   d="M183.7,38.9c5.4-5,6.7-15,3.6-21.5c-3.8-8-11.4-9-18.7-5.5           c-6.9,3.3-13.1,4.4-20.6,2.8c-7.3-1.5-14.1-4.3-21.6-4.7C114,9.3,102,13.9,93.6,23.1c-1.6,1.8-2.9,3.8-4.1,5.8           c-1,1.6-2.1,3.4-2.5,5.3c-0.2,0.9,0.2,3.1-0.3,3.8c-0.5,0.8-2.3,1.5-3.1,2.1c-1.6,1.2-2.9,2.5-4.2,4           c-2.7,3.2-4.1,6.6-5.4,10.6c-4.1,13.2-4.5,29,0.9,42c0.7,1.7,2.9,5.4,4.2,1.6c0.3-0.7-0.3-3.2-0.3-3.9           c0-2.7,1.5-20.7,8-30.8c2.1-3.3,12-15.6,14-15.7c1.1,1.7,11.9,12.5,39.9,11.2c12.7-0.6,22.4-6.3,24.7-8.7           c1,5.5,13,13.8,14.8,17.2c5.3,9.8,6.4,30.3,8.4,30.3s3.5-5.2,3.9-6.2c3.1-7.4,3.6-16.6,3.3-24.6           C195.5,57,191.3,45.9,183.7,38.9z" />
								</g>
							</mask>
							<g
   class="st29"
   mask="url(#react-mask-924_1_)"
   id="g164">
								<g
   id="g162"
   transform="translate(0.000000, 0.000000) ">
									<path
   id="rect160"
   class="st30"
   d="M -1 0 L -1 280 L 263 280 L 263 0 L -1 0 z M 170.39062 5.125 C 171.1295 5.1357767 171.90679 5.2226562 172.51562 5.2226562 C 174.54646 5.2226563 176.75127 4.9627439 178.74805 5.390625 C 180.43597 5.752323 182.36122 5.8965086 183.9707 6.4023438 C 185.43396 6.8622246 186.83311 7.5286743 188.18359 8.2558594 C 188.87099 8.6259969 189.53748 9.2220304 190.20508 9.6035156 C 191.53421 10.363016 192.73654 11.152839 193.91016 12.130859 C 194.00663 12.211251 194.16635 12.203488 194.24805 12.298828 C 194.5116 12.606293 194.68965 12.976841 194.92188 13.308594 C 195.26421 13.797642 195.77043 14.159549 196.10156 14.65625 C 197.28423 16.430252 198.12305 18.762079 198.12305 20.890625 C 198.12305 22.832443 197.96664 24.981874 196.26953 26.113281 C 195.80151 26.425304 192.68134 26.647387 191.88867 26.449219 C 191.54411 26.363078 191.22562 26.190331 190.87891 26.113281 C 190.44991 26.017949 189.95215 26.065572 189.53125 25.945312 C 188.93314 25.774426 188.37944 25.368431 187.8457 25.101562 C 187.15515 24.75629 185.68579 24.45923 185.15039 23.923828 C 185.06162 23.835036 185.07122 23.674727 184.98242 23.585938 C 184.80483 23.408353 184.51756 23.389309 184.30859 23.25 C 183.65144 22.8119 182.91708 22.372866 182.28711 21.900391 C 182.03297 21.709787 181.86741 21.417167 181.61328 21.226562 C 181.51282 21.151221 181.38771 21.114754 181.27539 21.058594 C 181.21923 21.058594 181.15762 21.083704 181.10742 21.058594 C 180.73749 20.873631 180.0292 20.318263 179.75977 20.048828 C 179.65656 19.945626 179.6154 19.607479 179.42188 19.542969 C 178.89748 19.368168 178.55031 19.226206 178.07422 18.869141 C 177.86613 18.713074 175.93557 16.949175 175.88477 16.847656 C 175.66009 16.398401 176.12353 16.612948 175.7168 16.341797 C 175.18321 15.986069 174.7274 15.514226 174.19922 15.162109 C 174.10577 15.099809 173.95668 15.224409 173.86328 15.162109 C 173.58792 14.978537 173.33264 14.424682 173.01953 14.320312 C 172.91298 14.284793 172.78405 14.370542 172.68359 14.320312 C 172.54153 14.249279 172.45801 14.094736 172.3457 13.982422 C 172.3457 13.926265 172.3854 13.854163 172.3457 13.814453 C 171.97108 13.439838 171.41174 13.30361 170.99805 12.972656 C 170.95425 12.937574 171.03775 12.844397 170.99805 12.804688 C 170.47703 12.28367 169.49035 12.138791 168.97656 11.625 C 168.83338 11.481826 168.79873 11.245627 168.64062 11.119141 C 168.50196 11.008199 168.27684 11.057723 168.13477 10.951172 C 167.72442 10.643378 168.18469 10.639214 167.79688 10.445312 C 167.49864 10.296201 167.74032 10.696407 167.46094 10.277344 C 167.1634 9.8310283 166.83293 9.3133931 166.44922 8.9296875 C 166.13685 8.6173175 165.56645 8.4300724 165.27148 8.0859375 C 165.05838 7.8373188 164.9341 7.5249268 164.76562 7.2441406 C 166.05984 7.2441406 165.30291 6.7235452 166.28125 6.234375 C 167.1556 5.7971971 168.1909 5.4350062 169.14648 5.2226562 C 169.51892 5.1398915 169.9473 5.118534 170.39062 5.125 z "
   transform="translate(1)" />
								</g>
							</g>
						</g>
					</g>
				</g>
			</g>
		</g>
	</g>
</g>
<g
   inkscape:groupmode="layer"
   id="layer1"
   inkscape:label="Layer 1"><path
     style="fill:#ffff00;fill-opacity:1;stroke:#ffff00;stroke-width:0.347726;stroke-miterlimit:4;stroke-dasharray:none;stroke-opacity:1"
     d="m 75.468691,99.022367 c -1.588666,-1.714199 -3.806466,-8.529514 -4.74883,-14.593192 -0.739032,-4.755333 -0.739801,-14.144529 -0.0015,-18.893676 1.044546,-6.719504 3.278078,-14.191677 5.289792,-17.696744 1.864889,-3.249247 5.514658,-7.100495 7.896092,-8.331982 1.687814,-0.872803 2.099461,-1.597661 2.248453,-3.95924 0.09576,-1.517815 0.425737,-2.759016 1.074931,-4.043321 6.691487,-13.237818 20.109611,-21.273273 35.588301,-21.312092 5.3258,-0.01336 7.49575,0.354075 17.28426,2.926702 13.22667,3.476246 17.25797,3.282516 28.37158,-1.363436 2.55875,-1.069665 3.50623,-1.289174 6.06498,-1.405119 4.03597,-0.182883 6.34743,0.63927 8.75952,3.115618 5.91501,6.072601 5.97437,17.190251 0.13075,24.488636 l -0.7132,0.890743 1.9332,2.278834 c 3.76281,4.435565 6.32359,9.073028 8.05222,14.582215 1.39588,4.448685 1.88279,8.340442 1.88429,15.060648 0.002,9.161927 -0.72385,13.957764 -3.10964,20.544712 -1.48818,4.108722 -2.35214,5.731027 -3.33104,6.254923 -0.56194,0.300736 -0.71995,0.191529 -1.12477,-0.777345 -0.25904,-0.619983 -1.09789,-4.380433 -1.8641,-8.356561 -2.1086,-10.942242 -3.51331,-16.097628 -5.41263,-19.8647 -1.02869,-2.04028 -1.19024,-2.220325 -7.86074,-8.760529 -4.33309,-4.248446 -7.28369,-7.881114 -7.28369,-8.967396 0,-0.666919 -0.14674,-0.60881 -1.93451,0.766075 -3.58669,2.758343 -10.88023,5.590528 -17.26359,6.703695 -7.99058,1.39344 -20.70405,0.76599 -28.64787,-1.413865 -3.83997,-1.05372 -4.09712,-1.166424 -3.71418,-1.627838 0.19792,-0.238485 0.80268,-0.522175 1.34391,-0.630418 0.78804,-0.157609 1.05462,-0.450931 1.33834,-1.472618 0.47931,-1.726023 0.44822,-2.84849 -0.10095,-3.643673 -0.25245,-0.365543 -0.56402,-1.378361 -0.69238,-2.250708 -0.26971,-1.833046 -1.43587,-3.038195 -3.55398,-3.672798 -1.85673,-0.556288 -9.47074,0.161416 -11.20951,1.056618 -0.69181,0.356176 -1.459666,0.570138 -1.706351,0.475478 -0.643147,-0.246798 -4.423375,0.794081 -4.580333,1.261189 -0.07246,0.21565 -0.888979,1.08607 -1.814478,1.934261 -1.914497,1.754579 -4.287223,4.815724 -4.287223,5.531108 0,0.263898 -0.547453,0.897375 -1.216562,1.40773 -1.332459,1.016316 -4.898752,6.231765 -5.039053,7.369253 -0.04829,0.391498 -0.697381,2.001454 -1.442429,3.577685 -1.305367,2.761643 -3.084147,8.199876 -3.084147,9.429107 0,0.327276 -0.222546,1.127675 -0.494547,1.778663 -0.724283,1.733456 -0.733031,14.809568 -0.01031,15.409374 0.285657,0.237074 0.483171,0.933674 0.464446,1.638024 -0.01792,0.674042 0.13992,1.962753 0.350754,2.8638 0.28813,1.231393 0.286948,1.754407 -0.0048,2.105896 -0.552527,0.665757 -0.901134,0.586867 -1.828468,-0.413736 z"
     id="path6727" /><path
     style="fill:#ffff00;stroke:#ffff00;stroke-width:1px;stroke-linecap:butt;stroke-linejoin:miter;stroke-opacity:1"
     d="m 183.33722,152.12581 c -0.19855,0.15884 -0.43287,0.28118 -0.59564,0.47651 -0.17286,0.20743 0.0914,0.79802 0,1.07215 -0.28763,0.86289 0.0343,-0.18782 -0.23826,0.35738 -0.13103,0.26207 -0.15396,0.86873 -0.35738,1.07215 -0.0281,0.0281 -0.10137,-0.0355 -0.11913,0 -0.0984,0.19679 0.004,0.78937 -0.11912,0.95302 -0.13478,0.1797 -0.37606,0.2756 -0.47651,0.47651 -0.0355,0.071 0.044,0.17218 0,0.23826 -0.26754,0.40131 -0.7549,1.2314 -1.07215,1.54865 -0.0596,0.0596 -0.17869,0.0596 -0.23826,0.11913 -0.0888,0.0888 -0.0495,0.2529 -0.11912,0.35738 0.0851,0.16283 -0.22721,0.10808 -0.23826,0.11913 -0.17598,0.17598 -0.2814,0.72508 -0.35738,0.95302 -0.0317,0.0952 0.0672,0.40931 0,0.47651 -0.22428,0.22428 -0.66979,0.46861 -0.83389,0.71477 -0.21143,0.31714 -0.62812,1.58113 -0.8339,1.78691 -0.0628,0.0628 -0.17546,0.0563 -0.23825,0.11912 -0.30377,0.30378 -0.1958,0.91056 -0.47651,1.19128 -0.11592,0.11592 -0.47056,0.34548 -0.59564,0.59564 -0.0355,0.071 0.0562,0.1821 0,0.23825 -0.0628,0.0628 -0.17547,0.0563 -0.23825,0.11913 -0.21885,0.21885 -0.38239,0.66869 -0.59564,0.95302 -0.45173,0.6023 -1.0899,1.05611 -1.54866,1.66778 -0.18071,0.24096 -0.37432,0.96997 -0.47651,1.07215 -0.0628,0.0628 -0.17547,0.0563 -0.23825,0.11913 -0.0628,0.0628 -0.0563,0.17547 -0.11913,0.23825 -0.0888,0.0888 -0.35738,-0.006 -0.35738,0.11913 0,0.22053 0.50045,0.38132 0.59563,0.47651 0.12295,0.12294 0.17311,0.34621 0.23826,0.47651 0.0417,0.0834 0.78812,0.90725 0.83389,0.95302 0.13501,0.13501 0.37779,0.15995 0.47651,0.35738 0.0178,0.0355 -0.0281,0.091 0,0.11913 0.12557,0.12557 0.33784,0.12732 0.47651,0.23826 0.50928,0.40742 1.41878,1.23471 1.78691,1.78691 0.23892,0.35837 0.45686,0.72827 0.71477,1.07215 0.10108,0.13477 0.28204,0.20669 0.35738,0.35738 0.0178,0.0355 0,0.0794 0,0.11913 0.0397,0.0794 0.0699,0.16437 0.11913,0.23825 0.12679,0.19018 0.33061,0.21149 0.47651,0.35738 0.0516,0.0516 0.187,0.39963 0.23825,0.47651 0.16559,0.24838 0.46091,0.44531 0.59564,0.71477 0.0562,0.11231 0.0495,0.2529 0.11913,0.35738 0.022,0.033 0.091,-0.0281 0.11913,0 0.18692,0.18692 0.75398,1.5864 0.83389,1.90604 0.0922,0.36877 0.15395,0.13745 0.35738,0.47651 0.43145,0.71908 -0.0625,0.0507 0.11913,0.59564 0.0355,0.10655 0.20274,0.1317 0.23825,0.23825 0.13455,0.40363 0.24307,0.56395 0.47651,0.95302 0.21792,0.36319 0.17992,0.83634 0.35739,1.19128 0.0502,0.10046 0.20273,0.1317 0.23825,0.23825 0.30518,0.91553 0.70688,1.87452 0.95302,2.85906 0.0725,0.29007 -0.0946,0.6693 0,0.95302 0.0837,0.25109 0.26315,0.5512 0.35738,0.8339 0.10725,0.32173 -0.0344,0.88422 0.11913,1.19127 0.0178,0.0355 0.0911,-0.0281 0.11913,0 0.0888,0.0888 0.0794,0.23826 0.11913,0.35738 0.11621,0.34864 -0.0452,1.10095 0.11912,1.42953 0.17952,0.35903 0.2955,0.87722 0.35739,1.31041 0.0661,0.46291 -0.0916,0.9716 0,1.42953 -0.0273,0.23922 0.18639,0.38818 0.23825,0.59563 0.13214,0.52854 0.0121,1.13291 0.11913,1.66779 0.29748,1.48738 0.35738,2.98524 0.35738,4.52684 0,0.18515 -0.0824,0.54996 0,0.71477 0.0502,0.10046 0.18803,0.1378 0.23826,0.23825 0.42104,0.84209 -0.81852,1.1964 0.95302,1.78692 0.11912,0.0397 0.26859,0.20792 0.35738,0.11912 0.10218,-0.10218 0.19897,-1.43017 0.35738,-1.66778 0.0623,-0.0934 0.17596,-0.1448 0.23826,-0.23826 0.2934,-0.4401 -0.67384,0.43558 0.11912,-0.35738 0.0281,-0.0281 0.0971,0.033 0.11913,0 0.0697,-0.10448 0.0495,-0.2529 0.11913,-0.35738 0.022,-0.033 0.0794,0 0.11913,0 0.0794,-0.11913 0.18508,-0.22445 0.23825,-0.35738 0.0295,-0.0737 -0.0441,-0.17218 0,-0.23826 0.0492,-0.0739 0.17547,-0.0563 0.23826,-0.11913 0.14317,-0.14317 0.0439,-0.40764 0.11912,-0.59563 0.0532,-0.13294 0.18509,-0.22445 0.23826,-0.35739 0.09,-0.2251 0.0251,-0.64576 0.11913,-0.83389 0.0251,-0.0502 0.0794,-0.0794 0.11912,-0.11913 0.0794,-0.15883 0.17231,-0.31162 0.23826,-0.47651 0.0843,-0.21077 -0.0199,-0.50619 0.11913,-0.71476 0.62699,-0.94049 0.67514,-1.98581 0.95302,-3.09732 0.0638,-0.2553 0.26255,-0.54941 0.35738,-0.83389 0.0477,-0.14295 -0.0477,-0.33356 0,-0.47651 0.0453,-0.13582 0.17422,-0.22932 0.23825,-0.35738 0.13586,-0.27171 -0.0605,-0.76943 0,-1.07215 0.35902,-1.79507 0.11913,-4.41814 0.11913,-6.31376 0,-0.75826 -0.12467,-1.63453 0,-2.38255 0.11937,-0.71618 0.25313,-1.41448 0.35738,-2.14429 0.16418,-1.1492 0,-2.5409 0,-3.69295 0,-0.64438 0.092,-1.38104 0,-2.02517 -0.0533,-0.37345 -0.16553,-0.70856 -0.23825,-1.07215 -0.15387,-0.76936 -0.095,-1.23788 -0.35738,-2.02517 -0.12843,-0.38529 0.0384,-0.91656 -0.11913,-1.3104 -0.31064,-0.77659 -0.57666,-1.61084 -0.83389,-2.38255 -0.0942,-0.28261 -0.0472,-0.66524 -0.11913,-0.95302 -0.0136,-0.0545 -0.0794,-0.0794 -0.11913,-0.11913 -0.0397,-0.15883 -0.0922,-0.31501 -0.11913,-0.47651 -0.12008,-0.72048 -0.24925,-1.46253 -0.47651,-2.14429 -0.15257,-0.45773 -0.29828,-0.98397 -0.47651,-1.42953 -0.1162,-0.29052 -0.37829,-0.65837 -0.47651,-0.95302 -0.0954,-0.28624 -0.004,-0.666 -0.11912,-0.95302 -0.11024,-0.27558 -0.36321,-0.56952 -0.47651,-0.83389 -0.1484,-0.34626 -0.17048,-0.74507 -0.35739,-1.07215 -0.43406,-0.75961 -0.82478,-1.53499 -1.3104,-2.26342 -0.18851,-0.28276 -0.65034,-1.48424 -0.83389,-1.66779 -0.0281,-0.0281 -0.10137,0.0355 -0.11913,0 -0.0355,-0.071 0.0193,-0.16121 0,-0.23825 -0.0446,-0.17831 -0.29333,-0.46753 -0.35738,-0.59564 -0.38378,-0.76755 -0.60633,-1.19662 -1.3104,-1.54866 z"
     id="path6799" /><path
     style="fill:#ffff00;fill-opacity:1;stroke:#ffff00;stroke-width:0.347726;stroke-miterlimit:4;stroke-dasharray:none;stroke-opacity:1"
     d="m 175.37906,97.335247 c -4.11024,-2.136463 -17.07882,-4.114194 -24.34416,-3.712528 -2.03502,0.112506 -3.62214,0.06919 -3.62214,-0.09885 0,-0.480851 1.98017,-2.011351 3.78672,-2.926794 4.14638,-2.101131 10.74529,-2.834902 15.05338,-1.673872 4.77161,1.285948 9.2502,4.308638 10.51755,7.098495 0.65376,1.439152 0.79233,2.227975 0.3776,2.149498 -0.13898,-0.0263 -0.93501,-0.402477 -1.76895,-0.835949 z"
     id="path7072" /><path
     style="fill:#ffff00;fill-opacity:1;stroke:#ffff00;stroke-width:0.347726;stroke-miterlimit:4;stroke-dasharray:none;stroke-opacity:1"
     d="m 87.773767,97.428717 c 0,-1.157698 1.81275,-3.770569 3.437464,-4.954708 5.807207,-4.232465 12.950779,-5.273361 20.095039,-2.928066 2.14504,0.704166 6.14034,3.085915 6.35321,3.78739 0.0654,0.215434 -2.05455,0.342286 -5.87849,0.351756 -8.40895,0.02083 -18.327912,1.653559 -22.365493,3.68152 l -1.64173,0.824595 z"
     id="path7111" /><path
     style="fill:#ffff00;fill-opacity:1;stroke:#ffff00;stroke-width:0.173863;stroke-miterlimit:4;stroke-dasharray:none;stroke-opacity:1"
     d="m 77.607556,97.616919 c -0.121497,-0.688103 -0.284041,-1.955285 -0.361208,-2.815959 -0.0864,-0.963659 -0.247646,-1.72869 -0.419702,-1.991281 -0.406437,-0.620302 -0.58716,-2.817093 -0.587533,-7.141809 -3.77e-4,-4.37551 0.217175,-7.487419 0.584981,-8.367704 0.141357,-0.338315 0.339952,-1.152648 0.441322,-1.809629 0.251777,-1.631776 1.673994,-5.969446 2.794494,-8.523028 0.508232,-1.158243 1.180412,-2.806068 1.493733,-3.661834 0.907367,-2.478266 2.9569,-5.599894 5.053544,-7.697014 0.714544,-0.714707 1.370022,-1.563454 1.636393,-2.11889 0.597089,-1.245042 1.928696,-2.88167 4.2854,-5.267022 1.827351,-1.849563 2.031958,-2.005032 3.065904,-2.32958 0.609337,-0.191267 1.714382,-0.408125 2.455658,-0.481907 0.741275,-0.07378 1.764741,-0.304296 2.274368,-0.512251 1.49607,-0.610475 4.17749,-1.010831 7.49699,-1.119355 2.80727,-0.09178 3.10131,-0.07296 3.95909,0.25333 1.78343,0.678409 2.53912,1.61673 2.97623,3.695529 0.1228,0.584016 0.41314,1.463173 0.64518,1.953681 0.47944,1.013448 0.51026,1.472375 0.19019,2.832379 -0.26625,1.131366 -0.67147,1.816087 -1.07782,1.821255 -0.54937,0.007 -1.69013,0.638309 -1.80449,0.998645 -0.13889,0.43759 -0.14445,0.436143 -2.92326,-0.761402 -3.79288,-1.634565 -7.05026,-3.706723 -9.10094,-5.789487 l -0.983565,-0.998955 -0.573279,0.348251 c -1.362655,0.827777 -3.8616,3.418707 -7.441574,7.715493 -5.326414,6.392916 -7.149204,9.202103 -9.018551,13.898917 -2.921946,7.341513 -5.375439,20.882596 -4.744694,26.186466 0.144445,1.214626 0.165225,2.023572 0.06129,2.385968 -0.149601,0.521625 -0.16799,0.487449 -0.378153,-0.702807 z"
     id="path7425" /><path
     style="fill:#ffff00;fill-opacity:1;stroke:#ffff00;stroke-width:0.173863;stroke-miterlimit:4;stroke-dasharray:none;stroke-opacity:1"
     d="m 75.718211,99.369394 c -1.721945,-1.555673 -4.204421,-8.947825 -5.12277,-15.254245 -0.615065,-4.223729 -0.614004,-14.10124 0.002,-18.283614 0.967868,-6.571755 3.440485,-14.842091 5.427589,-18.154038 1.839575,-3.066059 4.904757,-6.333261 7.553544,-8.051385 2.039118,-1.322665 2.17046,-1.542768 2.503291,-4.195021 0.277282,-2.209607 0.496887,-2.896056 1.552522,-4.85294 5.790075,-10.733355 16.237223,-18.003575 28.677653,-19.956925 4.2815,-0.672266 9.98011,-0.6410299 13.96086,0.07652 1.04357,0.188111 4.75837,1.057156 8.25511,1.931212 7.16968,1.792154 8.83484,2.150423 11.83304,2.545955 2.41177,0.318166 5.58742,0.251981 7.92044,-0.165073 2.57447,-0.460218 3.76831,-0.85404 10.999,-3.628334 2.3916,-0.917616 3.27846,-1.075926 6.09861,-1.088639 1.97647,-0.0089 2.54967,0.0492 3.53791,0.358632 2.382,0.745856 4.40091,2.361015 6.07057,4.856541 4.29908,6.425546 3.69223,15.748887 -1.45977,22.426826 -0.62994,0.816524 -0.6736,0.932941 -0.44858,1.196041 4.37621,5.116825 6.79589,8.911782 8.61817,13.516502 2.36257,5.969954 3.1023,11.117747 2.9172,20.300842 -0.16857,8.362665 -0.91276,12.62343 -3.33466,19.092107 -1.44664,3.863845 -2.60873,5.757472 -3.53326,5.757472 -0.70617,0 -1.00052,-1.068053 -2.94826,-10.697954 -2.09313,-10.348745 -3.27675,-14.62112 -5.06407,-18.279182 l -0.94662,-1.937425 -4.99998,-5.054151 c -6.64498,-6.71698 -8.95945,-9.433436 -9.25068,-10.857379 l -0.10874,-0.531709 -1.68466,1.202598 c -4.62241,3.299718 -12.74423,6.239179 -19.54267,7.072908 -7.22102,0.885555 -18.33059,0.251247 -25.27601,-1.443149 -2.30276,-0.561779 -4.92607,-1.393753 -5.05563,-1.603376 -0.18356,-0.297005 0.26021,-0.645179 1.31035,-1.028078 1.16629,-0.425253 1.34299,-0.705248 1.67802,-2.658969 0.19071,-1.112142 0.17922,-1.239234 -0.18716,-2.07078 -0.21468,-0.487254 -0.53989,-1.49006 -0.72268,-2.228457 -0.53024,-2.142 -0.96502,-2.749807 -2.57721,-3.602847 -0.82817,-0.4382 -0.89628,-0.445518 -4.04332,-0.434453 -3.67288,0.01292 -6.51522,0.41561 -8.401723,1.190336 -0.612895,0.251696 -1.08757,0.484415 -1.054835,0.517149 0.03273,0.03274 0.657604,-0.128455 1.388608,-0.358201 1.77321,-0.557308 2.80944,-0.784528 4.02463,-0.882501 0.55595,-0.04483 1.42779,-0.132814 1.93742,-0.195533 0.50963,-0.06272 1.91215,-0.07559 3.11673,-0.02862 1.89793,0.07402 2.29969,0.141215 3.01136,0.503643 1.11581,0.568247 1.73622,1.373117 2.14315,2.780375 0.18755,0.648616 0.53581,1.698965 0.77389,2.334106 0.50615,1.350256 0.47914,2.592888 -0.084,3.866069 -0.29531,0.667585 -0.43672,0.796644 -1.05552,0.963268 -0.39298,0.10582 -0.9447,0.422582 -1.22603,0.703915 l -0.51152,0.511516 -1.35717,-0.550118 c -3.87929,-1.572436 -7.36076,-3.655149 -9.86851,-5.90362 l -1.534917,-1.37621 -0.917532,0.631928 c -2.292387,1.578827 -9.35696,9.779855 -12.626412,14.65758 -3.488577,5.204639 -6.119301,13.233866 -7.64433,23.331241 -0.559628,3.705354 -0.640131,5.355098 -0.522027,10.697954 0.0358,1.619484 -0.01311,1.83116 -0.194638,0.842359 -0.203731,-1.109759 -0.248457,-1.451401 -0.383814,-2.931797 -0.06271,-0.685894 -0.254593,-1.671454 -0.4264,-2.190133 -0.477322,-1.441024 -0.520426,-2.035561 -0.525126,-7.243219 -0.0038,-4.195859 0.183192,-7.528993 0.446228,-7.954594 0.04348,-0.07035 0.260463,-0.947765 0.482187,-1.949811 0.570467,-2.578136 1.430256,-5.15786 3.07779,-9.234658 2.318628,-5.737407 3.146428,-7.176292 5.956071,-10.352865 0.816429,-0.923053 1.693646,-2.041669 1.949368,-2.485812 0.812382,-1.410963 1.927135,-2.769057 4.083618,-4.975039 2.264607,-2.316589 2.852353,-2.677142 4.768007,-2.924939 1.404423,-0.181666 1.756623,-0.426666 0.477535,-0.332187 -0.602286,0.04449 -1.583519,0.242553 -2.180519,0.440144 -0.986299,0.326437 -1.255618,0.531046 -2.948255,2.239863 -2.673426,2.698978 -4.642586,5.165913 -4.642586,5.816161 0,0.128522 -0.663357,0.928113 -1.474127,1.77687 -2.188384,2.290914 -4.21612,5.36593 -4.90821,7.443193 -0.187947,0.564109 -0.803642,2.068373 -1.36821,3.342808 -1.244436,2.80914 -2.61109,6.874515 -2.939696,8.744693 -0.13292,0.756477 -0.356565,1.698522 -0.49699,2.093433 -0.378172,1.063513 -0.602643,4.199987 -0.599702,8.379453 0.0032,4.496136 0.192327,6.661529 0.661709,7.574731 0.21554,0.419342 0.343036,0.993032 0.343036,1.543543 0,0.481885 0.113706,1.470368 0.252679,2.196629 0.34933,1.82557 0.326037,2.287945 -0.137183,2.72312 -0.525291,0.49348 -0.67626,0.46763 -1.473097,-0.252263 z"
     id="path7464" /><path
     style="fill:#ffff00;fill-opacity:1;stroke:#ffff00;stroke-width:0.173863;stroke-miterlimit:4;stroke-dasharray:none;stroke-opacity:1"
     d="M 75.748641,99.396887 C 73.687755,97.535 70.912835,88.567198 70.327517,81.877256 c -0.24736,-2.827228 -0.2469,-11.00337 7.77e-4,-13.786487 0.47,-5.281344 2.504782,-13.419273 4.529692,-18.116093 1.669152,-3.871631 5.174678,-8.054772 8.690048,-10.369823 1.997519,-1.31547 2.244367,-1.743652 2.5333,-4.394263 0.241176,-2.212501 1.169434,-4.355961 3.246689,-7.496992 6.387839,-9.659096 16.146677,-15.659787 28.096767,-17.276655 1.34956,-0.182599 3.25384,-0.273744 5.72804,-0.274165 5.20044,-8.85e-4 6.48773,0.206819 16.00481,2.582372 9.6712,2.414023 12.67508,2.863093 16.77808,2.508266 3.38462,-0.292702 5.5652,-0.907769 11.8916,-3.354209 1.65165,-0.638698 3.45788,-1.260547 4.01384,-1.381886 1.34286,-0.293084 5.82232,-0.297153 6.81864,-0.0062 1.72476,0.503688 2.9236,1.251212 4.48601,2.797201 3.148,3.114926 4.6506,6.96811 4.66491,11.962429 0.013,4.541262 -1.25244,8.516532 -3.87439,12.170984 -0.49049,0.683644 -0.89181,1.313216 -0.89181,1.399046 0,0.08583 0.84208,1.199455 1.87128,2.474722 2.51266,3.113413 3.97435,5.357508 5.46067,8.383648 1.99127,4.054203 3.27209,8.216295 3.89661,12.662162 0.42642,3.035654 0.42878,14.353414 0.004,17.732496 -0.45117,3.586457 -1.06024,6.255682 -2.23293,9.785847 -2.1771,6.553702 -4.0362,9.25122 -4.98453,7.232444 -0.32371,-0.689115 -1.03236,-3.807394 -2.50505,-11.023058 -1.91033,-9.358442 -3.074,-13.462492 -4.89042,-17.246552 l -1.00041,-2.084103 -4.94274,-4.991709 c -6.63684,-6.702599 -8.88787,-9.327865 -9.15853,-10.681155 -0.11765,-0.588234 -0.1276,-0.584607 -2.09666,0.76422 -1.95403,1.338525 -3.26433,2.05874 -5.5344,3.042018 -4.29438,1.860098 -8.74753,3.13536 -13.06475,3.74139 -5.9851,0.840158 -15.14175,0.589509 -22.31432,-0.61082 -3.21209,-0.537543 -7.85292,-1.758489 -8.50983,-2.238832 -0.32822,-0.239997 -0.32821,-0.244306 0.002,-0.635912 0.27786,-0.329908 0.24999,-0.321516 -0.1707,0.05141 -0.6172,0.547105 -0.52747,0.57511 -4.71458,-1.4714 -3.11503,-1.522516 -4.61681,-2.536374 -7.87531,-5.31669 -0.589127,-0.502669 -0.661851,-0.523199 -1.095071,-0.30914 -0.770295,0.380611 -5.203869,4.964767 -7.576436,7.833763 -4.503025,5.445223 -6.575868,8.500677 -8.130505,11.984692 -2.151421,4.821292 -3.89292,11.409653 -5.088445,19.250137 -0.267218,1.752468 -0.363212,3.33329 -0.410047,6.752629 -0.07063,5.156625 -0.05838,4.926747 -0.233397,4.380265 -0.116456,-0.363634 -0.137179,-0.327366 -0.151678,0.265459 -0.01187,0.48518 -0.131194,0.794112 -0.406713,1.052949 -0.522385,0.490749 -0.677399,0.466599 -1.442667,-0.22477 z m 1.77569,-2.315058 c -0.04674,-0.115824 -0.08497,-0.02106 -0.08497,0.21059 0,0.231648 0.03824,0.326414 0.08497,0.210589 0.04674,-0.115824 0.04674,-0.305355 0,-0.421179 z m -0.206341,-1.63207 c -0.06511,-0.660725 -0.154376,-1.165319 -0.198377,-1.121317 -0.044,0.044 -0.02581,0.619668 0.04044,1.27926 0.06624,0.659592 0.15551,1.164185 0.198377,1.121317 0.04287,-0.04287 0.02467,-0.618534 -0.04044,-1.27926 z m -0.486531,-2.736642 c -0.145362,-0.50003 -0.336483,-1.361065 -0.424712,-1.913416 l -0.160417,-1.004274 0.07517,1.17693 c 0.06671,1.044515 0.547618,2.876535 0.711952,2.712201 0.03427,-0.03426 -0.05663,-0.471414 -0.201993,-0.971441 z m -0.461794,-7.04522 c 0,-2.166376 -0.0633,-3.667232 -0.152342,-3.6122 -0.281897,0.174223 -0.182071,7.318551 0.102261,7.318551 0.02754,0 0.05008,-1.667858 0.05008,-3.706351 z m 0.0748,-5.264768 c 0.04792,-0.625451 0.02005,-1.137184 -0.06194,-1.137184 -0.08199,0 -0.149071,0.543321 -0.149071,1.207381 0,1.482196 0.09448,1.450765 0.211014,-0.0702 z m 0.07421,-2.102691 c -0.04272,-0.163918 -0.08047,-0.07059 -0.08391,0.207384 -0.0034,0.277978 0.03151,0.412092 0.07766,0.298031 0.04615,-0.11406 0.04896,-0.341497 0.0062,-0.505415 z m 0.166808,-0.750799 c -0.05378,-0.134395 -0.0937,-0.09448 -0.101786,0.101786 -0.0073,0.177596 0.0325,0.2771 0.08849,0.221119 0.05598,-0.05598 0.06197,-0.20129 0.0133,-0.322905 z m 0.336943,-1.179302 c -0.05378,-0.134395 -0.0937,-0.09448 -0.101785,0.101786 -0.0073,0.177596 0.0325,0.2771 0.08848,0.221119 0.05598,-0.05598 0.06197,-0.20129 0.0133,-0.322905 z m 0.270673,-0.81077 c 0.04846,-0.185319 0.0194,-0.336944 -0.06459,-0.336944 -0.08398,0 -0.1527,0.151625 -0.1527,0.336944 0,0.185319 0.02906,0.336943 0.06459,0.336943 0.03552,0 0.104238,-0.151624 0.1527,-0.336943 z m 0.348897,-1.503974 c 0.165818,-0.88684 1.20109,-3.87471 2.451537,-7.075312 0.377368,-0.965899 0.658323,-1.783981 0.624344,-1.81796 -0.109693,-0.109694 -1.813092,4.182597 -2.55499,6.43816 -0.688108,2.092028 -1.167351,4.097869 -0.747593,3.128999 0.09744,-0.224898 0.199452,-0.528147 0.226702,-0.673887 z m 4.248881,-11.379182 c 0.840635,-1.933211 2.040953,-3.847252 3.538178,-5.642018 1.650175,-1.978113 1.96856,-2.505188 0.62923,-1.041671 -2.024204,2.211894 -3.901662,5.148002 -4.611963,7.212527 -0.437431,1.271416 -0.231999,1.027036 0.444555,-0.528838 z m 33.340733,-8.742028 c 0.12811,-0.198207 0.27638,-0.587813 0.32947,-0.865791 0.0935,-0.48954 0.0881,-0.486893 -0.17252,0.08424 -0.37286,0.817157 -0.69749,1.142413 -1.26451,1.266951 -0.2673,0.05871 -0.52685,0.172827 -0.57677,0.253594 -0.20252,0.327681 1.46884,-0.405619 1.68433,-0.73899 z M 91.411452,49.530801 c 2.706008,-2.845328 3.399111,-3.405902 4.700575,-3.801791 0.259234,-0.07886 0.310847,-0.134039 0.13368,-0.142929 -0.158724,-0.008 -0.658539,0.13134 -1.1107,0.309566 -1.593262,0.628006 -7.277005,6.914883 -7.277005,8.04921 0,0.07236 0.411791,-0.4835 0.91509,-1.23525 0.503301,-0.751749 1.690561,-2.18221 2.63836,-3.178806 z m 24.479888,2.11562 c 0.071,-0.534935 0.033,-1.022234 -0.10613,-1.363254 -0.20222,-0.495599 -0.21646,-0.440535 -0.21508,0.83175 0.002,1.531702 0.15489,1.785261 0.32121,0.531504 z m -0.55188,-2.482161 c -0.1986,-0.341528 -0.24656,-0.232213 -0.084,0.191441 0.0578,0.150563 0.14054,0.238263 0.18391,0.194887 0.0434,-0.04338 -0.002,-0.217225 -0.0999,-0.386328 z m -0.43755,-1.528881 c -0.2,-1.074979 -0.77777,-2.210912 -1.40435,-2.761054 -0.63128,-0.554274 -1.79503,-1.152653 -2.22199,-1.142508 -0.13899,0.0033 0.16426,0.195203 0.67389,0.426447 1.51725,0.688452 2.18986,1.51046 2.7073,3.308643 0.27546,0.957268 0.40897,1.04902 0.24515,0.168472 z M 97.337743,45.461093 c -0.114061,-0.04615 -0.341497,-0.04896 -0.505415,-0.0063 -0.163918,0.04271 -0.07059,0.08047 0.207383,0.08391 0.277979,0.0034 0.412092,-0.03152 0.298032,-0.07766 z m 0.797034,-0.160225 c 0,-0.03641 -0.113718,-0.06621 -0.252707,-0.06621 -0.138989,0 -0.252708,0.07343 -0.252708,0.163185 0,0.08975 0.113719,0.119546 0.252708,0.06621 0.138989,-0.05334 0.252707,-0.126768 0.252707,-0.163185 z m 2.976913,-0.655532 c 0.16956,-0.03836 0.53572,-0.148358 0.8137,-0.244442 0.47175,-0.163061 0.46088,-0.168197 -0.16318,-0.07711 -0.36772,0.05368 -0.89841,0.203986 -1.1793,0.334023 -0.28089,0.130036 -0.34619,0.196118 -0.14511,0.146848 0.20109,-0.04927 0.50434,-0.120964 0.67389,-0.159324 z m 2.12256,-0.532017 c -0.11406,-0.04615 -0.34149,-0.04896 -0.50541,-0.0062 -0.16392,0.04271 -0.0706,0.08047 0.20738,0.08391 0.27798,0.0034 0.41209,-0.03151 0.29803,-0.07766 z m 1.2623,-0.173718 c -0.16107,-0.04217 -0.46432,-0.0437 -0.67389,-0.0034 -0.20956,0.0403 -0.0778,0.0748 0.29286,0.07667 0.37064,0.0019 0.5421,-0.0311 0.38103,-0.07327 z m 6.44208,-0.206532 c 0,-0.173338 -3.43836,-0.204901 -4.88568,-0.04485 -0.82305,0.09101 -0.35226,0.128581 1.89531,0.15123 1.6447,0.01658 2.99037,-0.0313 2.99037,-0.106379 z"
     id="path7503" /><path
     style="fill:#ffff00;fill-opacity:1;stroke:#ffff00;stroke-width:0.173863;stroke-miterlimit:4;stroke-dasharray:none;stroke-opacity:1"
     d="m 175.88448,97.680841 c -4.57246,-2.345192 -14.19019,-3.936013 -23.78915,-3.934841 -3.02112,3.7e-4 -4.62065,-0.05976 -4.69274,-0.176407 -0.40373,-0.65325 3.43421,-3.107728 6.41209,-4.100726 2.96246,-0.987853 8.02079,-1.412449 11.0349,-0.926268 4.79707,0.773775 10.39162,4.252197 11.94835,7.428911 0.55046,1.123293 0.7507,2.166566 0.43432,2.262896 -0.0927,0.02821 -0.69916,-0.220892 -1.34777,-0.553565 z"
     id="path7542" /><path
     style="fill:#ffff00;fill-opacity:1;stroke:#ffff00;stroke-width:0.173863;stroke-miterlimit:4;stroke-dasharray:none;stroke-opacity:1"
     d="m 87.689531,97.645586 c 0,-1.508081 2.264347,-4.510717 4.435833,-5.882135 2.529116,-1.597281 5.495401,-2.772607 8.199546,-3.248891 3.18533,-0.561036 8.02209,-0.112118 11.17002,1.036732 2.40055,0.876093 6.09833,3.122578 6.09833,3.704874 0,0.356582 -1.05594,0.471424 -4.46738,0.485859 -9.5987,0.04062 -19.145684,1.559937 -23.872666,3.79913 l -1.563683,0.740723 z"
     id="path7581" /><path
     style="fill:#ffff00;fill-opacity:1;stroke:#ffff00;stroke-width:1.032;stroke-miterlimit:4;stroke-dasharray:none;stroke-opacity:1"
     id="path43996"
     d="m 72.779872,93.614833 c -0.005,0.35456 -0.0062,0.706812 0.03777,1.059 0.03997,0.297703 0.121712,0.58705 0.165238,0.884316 0.05661,0.240768 0.110945,0.480695 0.136063,0.726968 0.01765,0.244105 0.07949,0.481778 0.109633,0.724504 0.01401,0.298078 0.06588,0.592053 0.103675,0.887666 0.04657,0.316531 0.130721,0.624141 0.20824,0.933764 0.09815,0.316656 0.21308,0.627838 0.309407,0.945354 0.08176,0.234905 0.131785,0.478335 0.202098,0.716545 0.196307,0.65504 1.122679,0.37742 0.926371,-0.27762 v 0 c -0.07317,-0.239103 -0.118558,-0.485873 -0.203635,-0.721626 -0.09274,-0.30155 -0.197608,-0.599039 -0.296313,-0.898298 -0.06868,-0.27255 -0.143896,-0.542725 -0.186946,-0.821129 -0.03796,-0.295196 -0.08937,-0.588427 -0.103476,-0.886103 -0.03031,-0.235983 -0.08709,-0.467469 -0.10728,-0.704192 -0.0279,-0.259555 -0.07444,-0.515588 -0.141284,-0.768116 -0.04372,-0.290371 -0.117299,-0.574167 -0.162423,-0.8639 -0.04046,-0.311434 -0.03166,-0.62341 -0.03006,-0.937133 0,-0.683827 -0.967077,-0.683827 -0.967078,0 z" /><path
     style="fill:#ffff00;fill-opacity:1;stroke:#ffff00;stroke-width:1.032;stroke-miterlimit:4;stroke-dasharray:none;stroke-opacity:1"
     id="path43998"
     d="m 74.800015,94.829152 c -0.288136,-0.482999 -0.501757,-1.008034 -0.740768,-1.516754 -0.162284,-0.36183 -0.278305,-0.744671 -0.361877,-1.132039 -0.03267,-0.19364 -0.01857,-0.09792 -0.04265,-0.287098 -0.08832,-0.678098 -1.0473,-0.553189 -0.958976,0.124909 v 0 c 0.03223,0.243164 0.01335,0.119739 0.05718,0.370188 0.102152,0.4568 0.235977,0.909074 0.431099,1.335408 0.25951,0.5519 0.490632,1.121995 0.811333,1.641824 0.379319,0.568978 1.183976,0.03254 0.804657,-0.536438 z" /><path
     style="fill:#ffff00;fill-opacity:1;stroke:#ffff00;stroke-width:1.032;stroke-miterlimit:4;stroke-dasharray:none;stroke-opacity:1"
     id="path44000"
     d="m 80.428243,90.473304 c -0.313535,0.43336 -0.53424,0.921417 -0.777345,1.395173 -0.261852,0.45856 -0.332105,0.973659 -0.423743,1.483262 -0.06307,0.384446 -0.190001,0.753309 -0.27222,1.133622 -0.103543,0.376315 -0.130279,0.767205 -0.20311,1.148701 -0.06386,0.301041 -0.101561,0.606029 -0.122118,0.912794 -0.01459,0.314454 -0.01366,0.629385 -0.01384,0.944104 2.39e-4,0.285048 7.25e-4,0.570096 9.93e-4,0.855145 2.4e-4,0.295827 2.44e-4,0.591654 2.62e-4,0.887482 1e-5,0.285542 4e-6,0.571085 1e-6,0.856623 -3e-6,0.36983 -3e-6,0.73965 -4e-6,1.10947 0,0.41731 0,0.83461 0,1.25191 0,0.2762 0,0.55239 0,0.82859 0,0.30157 0,0.60315 0,0.90472 0,0.32568 0,0.65136 0,0.97704 0,0.35464 0,0.70928 0,1.06392 0,0.58734 0,1.17468 0,1.76201 0,0.49112 0,0.98224 0,1.47336 0.01106,0.26221 0.05909,0.5205 0.08968,0.78068 0.08038,0.67909 1.040749,0.56542 0.960373,-0.11367 v 0 c -0.02648,-0.22252 -0.06441,-0.44361 -0.08298,-0.66701 0,-0.49112 0,-0.98224 0,-1.47336 0,-0.58733 0,-1.17467 0,-1.76201 0,-0.35464 0,-0.70928 0,-1.06392 0,-0.32568 0,-0.65136 0,-0.97704 0,-0.30157 0,-0.60315 0,-0.90472 0,-0.2762 0,-0.55239 0,-0.82859 0,-0.4173 0,-0.8346 0,-1.2519 10e-7,-0.36982 10e-7,-0.73965 4e-6,-1.10947 3e-6,-0.285562 9e-6,-0.571127 -1e-6,-0.856692 -1.8e-5,-0.296111 -2.2e-5,-0.592222 -2.63e-4,-0.888333 -2.67e-4,-0.284561 -7.51e-4,-0.569121 -9.92e-4,-0.853681 1.65e-4,-0.293697 -7.07e-4,-0.587569 0.01175,-0.881057 0.01743,-0.269929 0.05187,-0.537961 0.108486,-0.802706 0.06607,-0.373292 0.100443,-0.752444 0.197498,-1.120364 0.0823,-0.391201 0.218989,-0.769151 0.278464,-1.165461 0.07395,-0.415774 0.117102,-0.837801 0.332261,-1.212115 0.226143,-0.441144 0.429245,-0.896843 0.7215,-1.300069 0.379318,-0.568978 -0.425338,-1.105416 -0.804656,-0.536438 z" /><path
     style="fill:#ffff00;fill-opacity:1;stroke:#ffff00;stroke-width:1.032;stroke-miterlimit:4;stroke-dasharray:none;stroke-opacity:1"
     id="path44002"
     d="m 80.354947,109.91149 c -0.145999,-0.47993 -0.312825,-0.95382 -0.439016,-1.43958 -0.05666,-0.3235 -0.130704,-0.64299 -0.170123,-0.9693 -0.02213,-0.40834 -0.05693,-0.81468 -0.09923,-1.22147 -0.04524,-0.44498 -0.05262,-0.89243 -0.05923,-1.33927 -0.0049,-0.51072 -0.0042,-1.02147 -0.004,-1.53221 4.02e-4,-0.40616 6.02e-4,-0.81231 7.12e-4,-1.21847 -0.0042,-0.61204 0.01237,-1.22433 -0.01465,-1.83589 -0.03915,-0.544055 -0.07457,-1.088254 -0.0912,-1.633495 -0.01192,-0.538369 -0.01338,-1.076889 -0.01397,-1.615364 -1.84e-4,-0.554164 2.52e-4,-1.108327 5.32e-4,-1.66249 1.79e-4,-0.341944 2.35e-4,-0.683888 2.56e-4,-1.025832 0.0873,-0.495038 0.248821,-0.968743 0.409039,-1.44335 0.153095,-0.476326 0.285105,-0.959673 0.402992,-1.445882 0.160812,-0.664649 -0.779144,-0.892072 -0.939956,-0.227423 v 0 c -0.11073,0.458714 -0.235726,0.914505 -0.379321,1.364014 -0.193369,0.572918 -0.39153,1.148089 -0.459831,1.752583 -2.1e-5,0.3418 -7.7e-5,0.6836 -2.56e-4,1.025401 -2.8e-4,0.554679 -7.17e-4,1.109358 -5.31e-4,1.664038 6.02e-4,0.54802 0.0021,1.096087 0.01442,1.643995 0.017,0.550047 0.05155,1.099132 0.09176,1.647955 0.0283,0.59663 0.0074,1.19433 0.01364,1.79148 -1.1e-4,0.40607 -3.1e-4,0.81215 -7.12e-4,1.21822 -2.7e-4,0.51569 -9.13e-4,1.03139 0.0041,1.54706 0.0071,0.47547 0.01577,0.95155 0.06431,1.42499 0.04295,0.41276 0.07618,0.82496 0.101236,1.23915 0.0458,0.36878 0.125824,0.73094 0.194305,1.0959 0.130287,0.49673 0.297536,0.98249 0.448426,1.47313 0.196496,0.65499 1.122788,0.3771 0.926292,-0.27789 z" /><circle
     id="path44004"
     style="fill:#ffff00;stroke:#ffff00"
     cx="80.05368"
     cy="111.38421"
     r="0.033234179" /><circle
     id="path44006"
     style="fill:#ffff00;stroke:#ffff00"
     cx="80.05368"
     cy="111.38421"
     r="0.033234179" /><circle
     id="path44008"
     style="fill:#ffff00;stroke:#ffff00"
     cx="80.172806"
     cy="111.14595"
     r="0.033234179" /><circle
     id="path44010"
     style="fill:#ffff00;stroke:#ffff00"
     cx="80.172806"
     cy="111.14595"
     r="0.033234179" /><circle
     id="path44012"
     style="fill:#ffff00;stroke:#ffff00"
     cx="80.172806"
     cy="112.33723"
     r="0.033234179" /><circle
     id="path44014"
     style="fill:#ffff00;stroke:#ffff00"
     cx="80.172806"
     cy="112.33723"
     r="0.033234179" /><path
     style="fill:#ffff00;fill-opacity:1;stroke:#ffff00;stroke-width:1.032;stroke-miterlimit:4;stroke-dasharray:none;stroke-opacity:1"
     id="path44016"
     d="m 81.039056,112.86938 c -0.138712,-0.30269 -0.218205,-0.62885 -0.288459,-0.95314 -0.04113,-0.22885 -0.02307,-0.11666 -0.0547,-0.3365 -0.0986,-0.67668 -1.055567,-0.53724 -0.956972,0.13944 v 0 c 0.03892,0.26437 0.01682,0.12987 0.06686,0.4034 0.08845,0.40228 0.190611,0.80584 0.368287,1.17929 0.305817,0.61163 1.170797,0.17914 0.86498,-0.43249 z" /><path
     style="fill:#ffff00;fill-opacity:1;stroke:#ffff00;stroke-width:1.032;stroke-miterlimit:4;stroke-dasharray:none;stroke-opacity:1"
     id="path44018"
     d="m 80.637234,112.28823 c -0.09068,-0.43248 -0.183812,-0.86458 -0.282481,-1.29531 -0.153381,-0.6664 -1.095817,-0.44949 -0.942436,0.21692 v 0 c 0.0935,0.40404 0.177565,0.8103 0.26756,1.21515 0.09671,0.67696 1.054065,0.54019 0.957357,-0.13676 z" /><circle
     id="path44020"
     style="fill:#ffff00;stroke:#ffff00"
     cx="80.411057"
     cy="110.78857"
     r="0.033234179" /><circle
     id="path44022"
     style="fill:#ffff00;stroke:#ffff00"
     cx="80.411057"
     cy="110.78857"
     r="0.033234179" /><path
     style="fill:#ffff00;fill-opacity:1;stroke:#ffff00;stroke-width:1.032;stroke-miterlimit:4;stroke-dasharray:none;stroke-opacity:1"
     id="path44024"
     d="m 80.656344,111.04621 c 0.0125,-0.19788 -0.0225,-0.39154 -0.0559,-0.58535 -0.121764,-0.6729 -1.073387,-0.5007 -0.951623,0.1722 v 0 c 0.02674,0.13731 0.05289,0.27205 0.04044,0.41315 0,0.68382 0.967077,0.68382 0.967077,0 z" /><path
     style="fill:#ffff00;fill-opacity:1;stroke:#ffff00;stroke-width:1.032;stroke-miterlimit:4;stroke-dasharray:none;stroke-opacity:1"
     id="path44026"
     d="m 114.7899,55.168112 c -0.49306,0.06406 -0.99023,0.08681 -1.48623,0.05874 -0.80437,-0.05344 -1.60313,-0.163295 -2.40544,-0.239006 -0.58565,-0.06041 -1.17408,-0.07086 -1.76224,-0.07682 -0.68896,-0.004 -1.37795,-0.002 -2.06692,-0.0014 -1.08912,6.57e-4 -2.17824,9.21e-4 -3.26736,0.0011 -0.66456,7.9e-5 -1.32912,9.3e-5 -1.99369,9e-5 -0.54868,-0.01328 -1.09662,0.02439 -1.64111,0.08951 -0.575896,0.0966 -1.14598,0.22121 -1.723486,0.308506 -0.440256,0.03512 -0.859796,0.174234 -1.28378,0.287163 -0.430321,0.144893 -0.878932,0.21153 -1.326521,0.277151 -0.395954,0.04968 -0.778995,0.148255 -1.159858,0.263984 -0.653963,0.199877 -0.371294,1.124721 0.28267,0.924843 v 0 c 0.334288,-0.102866 0.669751,-0.189602 1.018008,-0.232058 0.483834,-0.07147 0.969114,-0.144848 1.434862,-0.299492 0.389761,-0.104035 0.774403,-0.234874 1.179499,-0.265428 0.56794,-0.08625 1.129306,-0.205088 1.694916,-0.304611 0.50574,-0.0622 1.01508,-0.09468 1.5248,-0.08249 0.66461,3e-6 1.32922,-1.1e-5 1.99383,-9e-5 1.08935,-1.57e-4 2.17871,-4.21e-4 3.26806,-0.0011 0.68544,-5.94e-4 1.37089,-0.0026 2.05632,0.0014 0.56112,0.0056 1.12252,0.01475 1.68125,0.0726 0.81614,0.07684 1.62862,0.189398 2.44701,0.242022 0.55838,0.02589 1.11747,0.0091 1.67218,-0.06721 0.67695,-0.09671 0.54019,-1.054065 -0.13677,-0.957357 z" /><path
     style="fill:#ffff00;fill-opacity:1;stroke:#ffff00;stroke-width:1.032;stroke-miterlimit:4;stroke-dasharray:none;stroke-opacity:1"
     id="path44028"
     d="m 171.65917,53.339733 c -0.95786,-0.268972 -1.87453,-0.673887 -2.79399,-1.05151 -0.6811,-0.253002 -1.33936,-0.555507 -1.98864,-0.880127 -0.55015,-0.28282 -1.0934,-0.580085 -1.61088,-0.919581 -0.44354,-0.311398 -0.88998,-0.61111 -1.37741,-0.848761 -0.89389,-0.375186 -1.83884,-0.607036 -2.7819,-0.820488 -0.12136,-0.02451 -0.24273,-0.04902 -0.3641,-0.07354 -0.67034,-0.135139 -0.86145,0.812865 -0.19111,0.948005 v 0 c 0.114,0.02294 0.228,0.04588 0.342,0.06881 0.87248,0.196918 1.74657,0.410084 2.57653,0.749001 0.45227,0.212713 0.85467,0.50625 1.26716,0.786643 0.54983,0.357768 1.1231,0.676906 1.70732,0.974934 0.6706,0.335123 1.35052,0.647764 2.05363,0.909667 0.9488,0.389669 1.89521,0.80498 2.8835,1.083232 0.65499,0.196496 0.93288,-0.729795 0.27789,-0.926292 z" /><path
     style="fill:#ffff00;fill-opacity:1;stroke:#ffff00;stroke-width:1.032;stroke-miterlimit:4;stroke-dasharray:none;stroke-opacity:1"
     id="path44030"
     d="m 167.55685,52.314154 c -0.2811,-0.239413 -0.5707,-0.467087 -0.87777,-0.672261 -0.49412,-0.330752 -1.04668,-0.541736 -1.61299,-0.710322 -0.70385,-0.204465 -1.42647,-0.346912 -2.15283,-0.442466 -0.82091,-0.07476 -1.64558,-0.09461 -2.46942,-0.105337 -0.47163,-0.03361 -0.92899,0.06123 -1.38377,0.171295 -0.66457,0.161115 -0.43672,1.100967 0.22785,0.939852 v 0 c 0.37656,-0.09145 0.75182,-0.177797 1.14338,-0.144151 0.7864,0.01017 1.57349,0.02909 2.35733,0.09735 0.67622,0.08665 1.34853,0.222414 2.00376,0.410992 0.47439,0.138513 0.93735,0.312353 1.3513,0.588139 0.30805,0.203492 0.58879,0.441276 0.87673,0.671562 0.56897,0.379319 1.10541,-0.425337 0.53643,-0.804656 z" /><path
     style="fill:#ffff00;fill-opacity:1;stroke:#ffff00;stroke-width:1.032;stroke-miterlimit:4;stroke-dasharray:none;stroke-opacity:1"
     id="path44032"
     d="m 169.32966,53.602453 c -0.5746,-0.496404 -1.21783,-0.887393 -1.88989,-1.23498 -0.88012,-0.4316 -1.80351,-0.765486 -2.74101,-1.047665 -0.63104,-0.20564 -1.28194,-0.329802 -1.93254,-0.453138 -0.4776,-0.06015 -0.94633,-0.169008 -1.42166,-0.24264 -0.55895,-0.08359 -1.12352,-0.106579 -1.68771,-0.117049 -0.52689,0.01471 -0.26369,0.0049 -0.78962,0.02929 -0.68309,0.03175 -0.63818,0.997785 0.0449,0.966034 v 0 c 0.49401,-0.02305 0.25168,-0.01373 0.72697,-0.02841 0.52102,0.0094 1.04246,0.02941 1.55875,0.106021 0.46434,0.07049 0.92167,0.179845 1.38829,0.236917 0.61747,0.116991 1.23554,0.233052 1.83425,0.429126 0.88095,0.264359 1.74858,0.57751 2.57625,0.981099 0.62022,0.318545 1.2108,0.680085 1.73928,1.13876 0.53978,0.419829 1.13351,-0.343536 0.59373,-0.763365 z" /><path
     style="fill:#ffff00;fill-opacity:1;stroke:#ffff00;stroke-width:1.032;stroke-miterlimit:4;stroke-dasharray:none;stroke-opacity:1"
     id="path44034"
     d="m 157.95739,52.733405 c 0.43065,-0.158863 0.82938,-0.370594 1.18711,-0.65776 0.43342,-0.340623 1.03325,-0.454239 1.5624,-0.563262 0.52133,-0.07741 1.04042,-0.167248 1.56028,-0.254092 0.51383,-0.08353 1.02857,-0.151577 1.54714,-0.197171 0.68117,-0.06022 0.59601,-1.023538 -0.0852,-0.96332 v 0 c -0.54336,0.04828 -1.08292,0.118973 -1.62133,0.206632 -0.53263,0.08899 -1.06454,0.18025 -1.59842,0.261253 -0.69082,0.145639 -1.41935,0.308113 -1.97953,0.763313 -0.24775,0.213151 -0.54047,0.345498 -0.83817,0.47454 -0.65751,0.187861 -0.39183,1.117729 0.26568,0.929867 z" /><path
     style="fill:#ffff00;fill-opacity:1;stroke:#ffff00;stroke-width:1.032;stroke-miterlimit:4;stroke-dasharray:none;stroke-opacity:1"
     id="path44036"
     d="m 160.52823,53.044094 c 0.20802,-0.06617 0.39282,-0.189179 0.5913,-0.274369 0.0876,-0.03762 0.39057,-0.109384 0.44916,-0.12428 0.99605,-0.24758 2.00495,-0.437647 3.02354,-0.561601 0.66201,-0.08054 1.32889,-0.101555 1.99477,-0.122964 0.68347,-0.02204 0.6523,-0.988612 -0.0312,-0.966574 v 0 c -0.69467,0.02246 -1.39031,0.04531 -2.0809,0.129602 -1.06117,0.130182 -2.11267,0.326663 -3.15027,0.585756 -0.11799,0.03137 -0.23763,0.05707 -0.35396,0.0941 -0.30428,0.09687 -0.57636,0.263565 -0.87496,0.375346 -0.61164,0.305817 -0.17915,1.170797 0.43249,0.86498 z" /><path
     style="fill:#ffff00;fill-opacity:1;stroke:#ffff00;stroke-width:1.032;stroke-miterlimit:4;stroke-dasharray:none;stroke-opacity:1"
     id="path44038"
     d="m 160.12559,54.09794 c 1.38049,0 2.76097,0 4.14145,0 0.82427,0.0283 1.653,-0.03856 2.47679,0 0.80435,0.03765 1.60181,0.179681 2.38985,0.334459 1.24485,0.24915 2.31409,0.720125 3.40053,1.359127 1.18034,0.690844 2.15735,-0.978413 0.977,-1.669257 v 0 c -1.29875,-0.756937 -2.52775,-1.288018 -4.00893,-1.588578 -1.73233,-0.332873 -3.47181,-0.443227 -5.23524,-0.369905 -1.38048,0 -2.76096,0 -4.14145,0 -1.36765,0 -1.36765,1.934154 0,1.934154 z" /><path
     style="fill:#ffff00;fill-opacity:1;stroke:#ffff00;stroke-width:1.032;stroke-miterlimit:4;stroke-dasharray:none;stroke-opacity:1"
     id="path44040"
     d="m 175.79842,58.346516 c -1.45126,-0.623151 -2.91255,-1.217982 -4.35945,-1.85216 -0.81927,-0.318464 -1.56967,-0.751246 -2.30219,-1.230642 -1.06076,-0.697008 -2.22925,-1.200989 -3.4232,-1.618718 -1.16549,-0.427429 -2.37044,-0.670534 -3.59021,-0.873949 -1.33162,-0.184441 -2.64798,-0.462114 -3.96799,-0.713826 -1.14903,-0.217239 -2.3143,-0.313011 -3.48133,-0.35452 -1.06991,-0.03701 -2.14154,0.01069 -3.21045,-0.04796 -1.36579,-0.07143 -1.46681,1.860086 -0.10102,1.931514 v 0 c 1.08047,0.05419 2.16251,0.0194 3.2439,0.04942 1.06819,0.03662 2.1348,0.123592 3.18663,0.321471 1.33469,0.254474 2.66576,0.534818 4.01211,0.72171 1.11573,0.186055 2.20594,0.398491 3.27223,0.792693 1.04734,0.362823 2.07301,0.802609 3.00304,1.412414 0.82241,0.53442 1.66675,1.021242 2.58229,1.381966 1.41714,0.620668 2.84591,1.208542 4.27066,1.810548 1.22327,0.611633 2.08825,-1.118327 0.86498,-1.729961 z" /></g><path
   style="fill:#2d3f51;stroke:#2d3f51;stroke-width:1px;stroke-linecap:butt;stroke-linejoin:miter;stroke-opacity:1;fill-opacity:1"
   d="m 76.3,135.9 c -0.190654,-0.1215 -0.385346,-0.23688 -0.571961,-0.3645 -0.163249,-0.11164 -0.163443,-0.41615 -0.252708,-0.50542 -0.01985,-0.0198 -0.06438,0.0199 -0.08424,0 -0.09581,-0.0958 -0.263417,-0.34765 -0.336943,-0.42117 -0.03971,-0.0397 -0.115197,0.0177 -0.168472,0 -0.308295,-0.10277 -0.03523,-0.14397 -0.252708,-0.25271 -0.05023,-0.0251 -0.128762,0.0397 -0.168471,0 -0.117342,-0.11734 -0.281179,-0.43542 -0.42118,-0.50542 -0.16887,-0.0844 -8.46e-4,0.13927 -0.168471,-0.0842 -0.09823,-0.13098 -0.136937,-0.30541 -0.252708,-0.42118 -0.01985,-0.0199 -0.06438,0.0198 -0.08424,0 -0.21445,-0.21445 -0.442282,-0.68444 -0.758123,-0.84236 -0.02511,-0.0126 -0.06438,0.0199 -0.08423,0 -0.228886,-0.22889 -0.398528,-0.5516 -0.673887,-0.75812 -0.237254,-0.17794 -0.549161,-0.38069 -0.758123,-0.58966 -0.06046,-0.0605 -0.124686,-0.27293 -0.252708,-0.33694 -0.112228,-0.0561 -0.320488,-0.15202 -0.421179,-0.25271 -0.09148,-0.0915 -0.256099,-0.34372 -0.336943,-0.50541 -0.05068,-0.10136 -0.317282,-0.21338 -0.336944,-0.25271 -0.02511,-0.0502 0.02511,-0.11824 0,-0.16847 -0.01256,-0.0251 -0.06438,0.0198 -0.08424,0 -0.0962,-0.0962 -0.192685,-0.27692 -0.336943,-0.42118 -0.0444,-0.0444 -0.140393,-0.0281 -0.168472,-0.0842 -0.02511,-0.0502 0.02511,-0.11824 0,-0.16847 -0.01256,-0.0251 -0.06438,0.0199 -0.08424,0 -0.09927,-0.0993 -0.174831,-0.22013 -0.252707,-0.33694 -0.01343,-0.0201 -0.57918,-0.97942 -0.589651,-1.01083 -0.01776,-0.0533 0.02511,-0.11824 0,-0.16847 -0.01256,-0.0251 -0.06438,0.0199 -0.08424,0 -0.142658,-0.14266 -0.02581,-0.27852 -0.168472,-0.42118 -0.01985,-0.0199 -0.06438,0.0198 -0.08424,0 -0.09881,-0.0988 -0.181692,-0.36339 -0.252707,-0.50542 -0.09326,-0.18651 -0.296614,-0.33932 -0.42118,-0.50541 -0.08479,-0.11306 -0.177458,-0.43017 -0.252707,-0.50542 -0.01986,-0.0199 -0.06438,0.0199 -0.08424,0 -0.07476,-0.0748 -0.05199,-0.38893 -0.168472,-0.50541 -0.01985,-0.0199 -0.06438,0.0198 -0.08424,0 -0.0496,-0.0496 -0.214231,-0.72693 -0.252707,-0.84236 -0.04039,-0.12116 0.08571,-0.50394 0,-0.58965 -0.01985,-0.0199 -0.06438,0.0199 -0.08424,0 -0.164189,-0.16419 -0.0069,-0.26654 -0.08424,-0.42118 -0.03143,-0.0629 -0.140842,-0.30932 -0.168472,-0.33695 -0.01985,-0.0199 -0.06438,0.0199 -0.08424,0 -0.01763,-0.0176 -0.134829,-0.99414 -0.168471,-1.09506 -0.01714,-0.0514 -0.151337,-0.2013 -0.168472,-0.25271 -0.05303,-0.15908 -0.02435,-0.5244 -0.252708,-0.58965 -0.981709,-0.28049 -2.300736,-0.57385 -3.369434,-0.42118 -1.143538,0.16336 -2.075982,2.59479 -2.190132,3.62214 0,1.83349 0.08879,0.0615 -0.168472,1.34778 -0.130624,0.65312 0,1.85052 0,2.52707 0,0.66289 -0.05479,1.36421 0,2.02166 0.09312,1.11745 0.392753,2.61053 0.842359,3.62214 0.142889,0.32151 0.361039,0.60576 0.505415,0.9266 0.109312,0.24291 0.147776,0.51328 0.252707,0.75812 0.184087,0.42954 0.513201,0.78131 0.758123,1.1793 1.163826,1.89122 1.830834,3.09001 3.790614,4.29603 0.745127,0.45854 1.703711,0.6228 2.527076,0.84236 1.384211,0.36912 1.665933,0.50542 2.948255,0.50542 0.19655,0 0.413851,0.0879 0.589651,0 0.508823,-0.25442 0.878087,-1.06443 1.179302,-1.51625 0.06608,-0.0991 0.215036,-0.13969 0.252707,-0.25271 0.08519,-0.25556 0.09705,-0.40149 0.252708,-0.67388 0.218897,-0.38307 0.613415,-0.54502 0.842359,-0.9266 0.181012,-0.30168 0.348074,-0.61191 0.505415,-0.92659 0.05177,-0.10355 0.0024,-0.25508 0.08424,-0.33695 0.01985,-0.0198 0.06438,0.0199 0.08423,0 0.03971,-0.0397 -0.02511,-0.11824 0,-0.16847 C 75.396981,136.95574 76.064768,136.21173 76.3,135.9"
   id="path21268" /><path
   style="fill:#2d3f51;fill-opacity:1;stroke:#2d3f51;stroke-width:1px;stroke-linecap:butt;stroke-linejoin:miter;stroke-opacity:1"
   d="m 187.7,135.9 c 0.19065,-0.1215 0.38535,-0.23688 0.57196,-0.3645 0.16325,-0.11164 0.16344,-0.41615 0.25271,-0.50542 0.0198,-0.0198 0.0644,0.0199 0.0842,0 0.0958,-0.0958 0.26342,-0.34765 0.33694,-0.42117 0.0397,-0.0397 0.1152,0.0177 0.16847,0 0.3083,-0.10277 0.0352,-0.14397 0.25271,-0.25271 0.0502,-0.0251 0.12876,0.0397 0.16847,0 0.11734,-0.11734 0.28118,-0.43542 0.42118,-0.50542 0.16887,-0.0844 8.5e-4,0.13927 0.16847,-0.0842 0.0982,-0.13098 0.13694,-0.30541 0.25271,-0.42118 0.0199,-0.0199 0.0644,0.0198 0.0842,0 0.21445,-0.21445 0.44228,-0.68444 0.75813,-0.84236 0.0251,-0.0126 0.0644,0.0199 0.0842,0 0.22889,-0.22889 0.39853,-0.5516 0.67389,-0.75812 0.23726,-0.17794 0.54916,-0.38069 0.75812,-0.58966 0.0605,-0.0605 0.12469,-0.27293 0.25271,-0.33694 0.11223,-0.0561 0.32049,-0.15202 0.42118,-0.25271 0.0915,-0.0915 0.2561,-0.34372 0.33694,-0.50541 0.0507,-0.10136 0.31729,-0.21338 0.33695,-0.25271 0.0251,-0.0502 -0.0251,-0.11824 0,-0.16847 0.0126,-0.0251 0.0644,0.0198 0.0842,0 0.0962,-0.0962 0.19268,-0.27692 0.33694,-0.42118 0.0444,-0.0444 0.1404,-0.0281 0.16847,-0.0842 0.0251,-0.0502 -0.0251,-0.11824 0,-0.16847 0.0126,-0.0251 0.0644,0.0199 0.0842,0 0.0993,-0.0993 0.17484,-0.22013 0.25271,-0.33694 0.0134,-0.0201 0.57918,-0.97942 0.58965,-1.01083 0.0178,-0.0533 -0.0251,-0.11824 0,-0.16847 0.0126,-0.0251 0.0644,0.0199 0.0842,0 0.14266,-0.14266 0.0258,-0.27852 0.16847,-0.42118 0.0198,-0.0199 0.0644,0.0198 0.0842,0 0.0988,-0.0988 0.1817,-0.36339 0.25271,-0.50542 0.0933,-0.18651 0.29661,-0.33932 0.42118,-0.50541 0.0848,-0.11306 0.17746,-0.43017 0.25271,-0.50542 0.0199,-0.0199 0.0644,0.0199 0.0842,0 0.0748,-0.0748 0.052,-0.38893 0.16847,-0.50541 0.0199,-0.0199 0.0644,0.0198 0.0842,0 0.0496,-0.0496 0.21423,-0.72693 0.25271,-0.84236 0.0404,-0.12116 -0.0857,-0.50394 0,-0.58965 0.0199,-0.0199 0.0644,0.0199 0.0842,0 0.16419,-0.16419 0.007,-0.26654 0.0842,-0.42118 0.0314,-0.0629 0.14084,-0.30932 0.16847,-0.33695 0.0199,-0.0199 0.0644,0.0199 0.0842,0 0.0176,-0.0176 0.13483,-0.99414 0.16847,-1.09506 0.0171,-0.0514 0.15134,-0.2013 0.16847,-0.25271 0.053,-0.15908 0.0244,-0.5244 0.25271,-0.58965 0.98171,-0.28049 2.30074,-0.57385 3.36943,-0.42118 1.14354,0.16336 2.07599,2.59479 2.19014,3.62214 0,1.83349 -0.0888,0.0615 0.16847,1.34778 0.13062,0.65312 0,1.85052 0,2.52707 0,0.66289 0.0548,1.36421 0,2.02166 -0.0931,1.11745 -0.39276,2.61053 -0.84236,3.62214 -0.14289,0.32151 -0.36104,0.60576 -0.50542,0.9266 -0.10931,0.24291 -0.14777,0.51328 -0.2527,0.75812 -0.18409,0.42954 -0.5132,0.78131 -0.75813,1.1793 -1.16382,1.89122 -1.83083,3.09001 -3.79061,4.29603 -0.74513,0.45854 -1.70371,0.6228 -2.52708,0.84236 -1.38421,0.36912 -1.66593,0.50542 -2.94825,0.50542 -0.19655,0 -0.41385,0.0879 -0.58965,0 -0.50883,-0.25442 -0.87809,-1.06443 -1.1793,-1.51625 -0.0661,-0.0991 -0.21504,-0.13969 -0.25271,-0.25271 -0.0852,-0.25556 -0.097,-0.40149 -0.25271,-0.67388 -0.2189,-0.38307 -0.61341,-0.54502 -0.84236,-0.9266 -0.18101,-0.30168 -0.34807,-0.61191 -0.50541,-0.92659 -0.0518,-0.10355 -0.002,-0.25508 -0.0842,-0.33695 -0.0198,-0.0198 -0.0644,0.0199 -0.0842,0 -0.0397,-0.0397 0.0251,-0.11824 0,-0.16847 -0.1744,-0.34878 -0.84219,-1.09279 -1.07742,-1.40452"
   id="path25309" /><path
   style="fill:#000000;fill-opacity:0;stroke:#ffff00;stroke-width:0.173863;stroke-miterlimit:4;stroke-dasharray:none;stroke-opacity:1"
   d="m 183.42149,37.890006 c -0.22695,-0.226955 -0.12131,-1.153352 0.21639,-1.897573 0.18328,-0.403923 0.33434,-0.934608 0.33569,-1.179302 0.001,-0.244695 0.10835,-0.748675 0.23777,-1.119954 0.14568,-0.417898 0.25705,-1.605196 0.29238,-3.116727 0.0526,-2.252396 0.0215,-2.564766 -0.402,-4.029589 -0.25248,-0.873354 -0.52192,-1.631477 -0.59876,-1.684717 -0.20726,-0.143614 -0.87961,-1.502024 -0.87961,-1.777153 0,-0.130882 -0.14072,-0.337031 -0.3127,-0.458109 -0.17198,-0.121079 -0.48507,-0.561298 -0.69574,-0.978266 -0.21068,-0.416967 -0.67152,-1.073266 -1.02409,-1.458442 -0.35257,-0.385175 -0.90483,-1.067486 -1.22724,-1.516245 -0.32241,-0.44876 -0.92512,-1.069866 -1.33936,-1.380236 -0.41425,-0.310371 -0.83609,-0.746291 -0.93743,-0.968713 -0.10134,-0.222421 -0.28065,-0.405138 -0.39846,-0.406038 -0.11781,-8.92e-4 -0.54707,-0.266242 -0.95392,-0.589651 -0.40684,-0.323408 -0.79443,-0.588015 -0.86131,-0.588015 -0.0669,0 -0.41631,-0.235175 -0.77653,-0.52261 -1.51803,-1.211324 -3.7622,-1.988742 -5.79332,-2.006899 -0.82094,-0.0073 -0.89191,-0.03458 -0.6224,-0.238942 0.16731,-0.126863 1.23269,-0.539419 2.36751,-0.916792 1.80715,-0.600952 2.32363,-0.69952 4.1603,-0.793972 3.78975,-0.194891 5.96308,0.401485 8.17562,2.243445 6.14698,5.117424 7.28355,15.581331 2.55068,23.482988 -0.86423,1.442866 -1.35523,2.059751 -1.51347,1.901512 z"
   id="path39261" /><path
   style="fill:#ffff00;stroke:#ffff00;stroke-width:1px;stroke-linecap:butt;stroke-linejoin:miter;stroke-opacity:1"
   d="m 115.23161,53.934383 c 0.24964,0.502045 -5.02922,0.387755 -5.1578,0.387755 -3.17674,0 -6.35347,0 -9.5302,0 -1.171316,0 -2.967116,-0.361074 -4.050338,0 -0.420155,0.140052 -0.714167,0.555729 -1.191275,0.714765 -0.384175,0.128058 -0.904928,-0.04809 -1.191275,0.238255 -0.254699,0.254699 -0.57194,0.798186 -1.191275,0.95302 -0.231141,0.05779 -0.481137,-0.04673 -0.714765,0 -2.155091,0.431019 0.647155,0.02254 -0.714765,0.47651 -0.235815,0.07861 -0.766815,0.05205 -0.95302,0.238255 -0.05616,0.05616 0.06608,0.194202 0,0.238255 -0.336701,0.224467 -1.162344,0.209324 -1.42953,0.47651 -0.05616,0.05616 0.05616,0.182098 0,0.238255 -0.224629,0.224629 -0.642398,-0.06656 -0.95302,0 -0.82312,0.176383 -3.137221,0.655498 -3.81208,1.667785 -0.631455,0.947184 -0.717122,2.149011 -1.191275,3.097315 -0.165622,0.331244 -0.03271,0.780194 -0.238255,1.191275 -0.369056,0.738113 -0.528845,1.031524 -0.95302,1.667785 -0.08811,0.13216 0.112315,0.364195 0,0.47651 -0.05616,0.05616 -0.202738,-0.07103 -0.238255,0 -0.10655,0.213102 0.106551,0.501663 0,0.714765 -0.161913,0.323827 -0.552851,0.629193 -0.714765,0.95302 -0.156882,0.313765 0.111461,0.856893 0,1.191275 -0.03552,0.106551 -0.188026,0.137798 -0.238255,0.238255 -0.151255,0.30251 0.105551,0.874624 0,1.191275 -0.04847,0.145398 -0.428043,0.569366 -0.47651,0.714765 -0.164472,0.493417 0,1.389096 0,1.90604 0,1.515915 -0.07162,3.478809 -0.714764,4.7651 -0.304225,0.608448 0.462232,2.396827 0,2.859059 -0.05616,0.05616 -0.182098,-0.05616 -0.238255,0 -0.42832,0.42832 0.43012,4.119919 0,4.7651 -0.186903,0.280354 -0.608215,0.395113 -0.714765,0.714765 -0.525076,1.575228 1.127128,2.741077 1.906039,3.81208 0.257334,0.353834 0.305524,0.849301 0.47651,1.191275 0.05023,0.100457 0.216229,0.128122 0.238255,0.238255 0.09345,0.467257 -0.150685,0.977473 0,1.42953 0.243958,0.731872 0.238255,1.527058 0.238255,2.38255 0,1.632501 0.337073,4.846339 0,6.194628 -0.532896,2.13159 -1.35592,4.24984 -1.667785,6.43289 -0.104769,0.73339 -0.239138,5.47809 0,5.95637 0.03552,0.071 0.202739,-0.071 0.238255,0 0.12707,0.25414 -0.127069,0.69888 0,0.95302 0.05023,0.10046 0.202739,0.13171 0.238255,0.23826 0.01513,0.0454 -0.163063,5.64292 -0.238255,5.71812 -0.154093,0.15409 -1.045544,0.37935 -1.191274,0.47651 -0.01918,0.0128 0.194709,2.79249 0.238255,3.09731 0.240723,1.68507 0.07545,0.1509 0.47651,0.95302 0.167406,0.33481 0,1.28617 0,1.66779 0,0.99014 0.304365,2.42247 0,3.33557 -0.119419,0.35825 -0.624147,0.8288 -0.714765,1.19127 -0.185453,0.74181 -0.0041,0.72713 -0.238255,1.42953 -0.07103,0.2131 -0.376053,0.2756 -0.47651,0.47651 -0.356139,0.71228 -0.547262,1.43422 -0.95302,2.1443 -0.440094,0.77016 -0.936619,1.64318 -1.42953,2.38255 -0.124602,0.1869 -0.376053,0.27559 -0.47651,0.47651 -0.133677,0.26735 -0.100264,0.67703 -0.238255,0.95302 -0.49578,0.99156 0.01645,-0.25471 -0.47651,0.23825 -0.06675,0.0668 0.515555,3.21843 0.238255,4.05034 -0.49186,1.47557 -1.667785,3.17011 -1.667785,4.52684 0,0.23685 -0.299174,2.08338 -0.714765,1.66779 -0.222416,-0.22242 -0.04391,-1.23519 -0.238255,-1.42953 -0.05616,-0.0562 -0.182098,0.0562 -0.238255,0 -0.75333,-0.75333 -0.153015,-2.8416 -0.47651,-3.81208 -0.48903,-1.46709 -1.447187,-9.47723 -0.95302,-10.95973 0.189786,-0.56936 0.473702,-0.70915 0.714765,-1.19128 0.206256,-0.41251 -0.09988,-0.62771 0.238255,-1.19127 0.380902,-0.63484 0.831834,-1.18716 1.191275,-1.90604 0.378249,-0.7565 0.396312,-1.9839 0.714765,-2.62081 0.03552,-0.071 0.182097,0.0562 0.238255,0 0.27862,-0.27862 0.09947,-2.78045 0.238255,-3.33557 0.605109,-2.42044 -0.06962,-5.03274 0.714765,-7.3859 0.336902,-1.01071 -0.242601,-2.13561 0.238255,-3.09732 0.139976,-0.27995 -0.08761,-4.47608 -0.238255,-5.00335 -0.09757,-0.34151 -0.364196,-0.61608 -0.47651,-0.95302 -0.150686,-0.45206 0.07834,-0.95951 0,-1.42953 -0.137743,-0.82646 -0.234599,-1.89507 -0.47651,-2.62081 -0.150686,-0.45206 0.06739,-0.95781 0,-1.42953 -0.18393,-1.287505 -0.238255,-2.477949 -0.238255,-3.812078 0,-0.132355 -0.366454,-1.137709 -0.153962,-0.436671 0.294111,-4.446991 0.153962,-8.923673 0.153962,-13.382119 0,-2.811554 0.279582,-5.781358 0,-8.577179 -0.359041,-3.590412 -0.398039,-7.377384 0,-10.95973 0.126885,-1.14197 0.653529,-2.049096 0.95302,-3.097315 0.512486,-1.793702 -0.870521,0.577266 0.47651,-1.667785 0.506664,-0.84444 1.273328,-1.511583 1.90604,-2.144295 0.422093,-0.422093 0.522134,-1.236899 0.95302,-1.667785 0.29019,-0.29019 0.532312,-0.111604 0.714765,-0.47651 0.610997,-1.221994 2.093075,-2.387318 3.335569,-3.097315 2.748035,-1.570305 6.120209,-2.218053 9.05369,-3.33557 0.995705,-0.379316 1.836848,-1.128879 2.85906,-1.429529 0.851844,-0.250543 1.762116,-0.25054 2.620805,-0.47651 0.656209,-0.172687 1.247749,-0.550193 1.90604,-0.714765 0.920355,-0.230089 3.820183,-0.361153 4.526843,-0.238255 2.10475,0.366042 3.99203,1.388775 5.95638,2.144294 0.0741,0.02851 0.15883,0 0.23825,0 0.63535,0.238255 1.29913,0.411308 1.90604,0.714765 0.41277,0.206383 1.01984,0.945463 1.42953,1.191275 0.25119,0.150712 1.60648,0.850843 1.66779,0.95302 0.22004,0.366734 0.23927,0.835423 0.47651,1.191275 0.0985,0.14776 0.35093,0.112684 0.47651,0.238255 0.18893,0.188937 0.34107,1.487938 0.3927,1.75654 z"
   id="path44403" /><path
   style="fill:#ffff00;fill-opacity:1;stroke:#ffff00;stroke-width:1.032;stroke-miterlimit:4;stroke-dasharray:none;stroke-opacity:1"
   id="path44504"
   d="m 99.289601,53.574536 c -0.779093,-0.0707 -1.545516,-0.212788 -2.308472,-0.381294 -0.705655,-0.181036 -1.427492,-0.241542 -2.152164,-0.279723 -1.36584,-0.0704 -1.465404,1.861187 -0.09956,1.931589 v 0 c 0.618261,0.03106 1.233344,0.07854 1.834849,0.236828 0.810285,0.178744 1.624695,0.330689 2.451821,0.407315 1.353905,0.193416 1.627435,-1.721299 0.27353,-1.914715 z" /><path
   style="fill:#ffff00;fill-opacity:1;stroke:#ffff00;stroke-width:1.032;stroke-miterlimit:4;stroke-dasharray:none;stroke-opacity:1"
   id="path44506"
   d="m 93.911226,55.499356 c -1.152517,-0.05429 -2.305335,-0.100422 -3.458343,-0.142861 -1.366729,-0.0503 -1.437858,1.88255 -0.07113,1.932846 v 0 c 1.176707,0.0433 2.353121,0.09227 3.529473,0.144169 1.367654,0 1.367654,-1.934154 0,-1.934154 z" /><path
   style="fill:#ffff00;fill-opacity:1;stroke:#ffff00;stroke-width:1.032;stroke-miterlimit:4;stroke-dasharray:none;stroke-opacity:1"
   id="path44508"
   d="m 81.281594,92.293238 c 0.132704,-0.883125 0.08921,-1.77391 0.0441,-2.661515 -0.0058,-0.649015 -0.08315,-1.28828 -0.180916,-1.928605 -0.04599,-0.591176 -0.190343,-1.158329 -0.379055,-1.718023 C 80.576981,85.427466 80.465146,84.851874 80.336069,84.278971 80.134617,83.461682 79.876172,82.66074 79.649382,81.850443 79.363857,81.012682 79.123958,80.171187 78.98801,79.296204 78.867474,78.384663 78.877385,77.4619 78.8716,76.544213 c -0.0026,-1.209293 9.71e-4,-2.418591 0.0026,-3.627884 8.05e-4,-0.582546 0.0012,-1.165093 0.0016,-1.74764 9.2e-4,-1.367653 -1.933233,-1.368954 -1.934153,-0.0013 v 0 c -3.92e-4,0.582099 -8.12e-4,1.164197 -0.0016,1.746295 -0.0017,1.214268 -0.0052,2.428541 -0.0026,3.642808 0.0065,1.014212 -8.75e-4,2.033795 0.139892,3.040433 0.150941,0.948806 0.396177,1.868104 0.709789,2.77611 0.219014,0.778593 0.465157,1.549016 0.662606,2.333532 0.145445,0.63695 0.274294,1.276503 0.483371,1.897079 0.153494,0.45422 0.269303,0.909506 0.29964,1.391408 0.08804,0.576581 0.160296,1.149927 0.161258,1.735009 0.03997,0.78383 0.0871,1.569791 -0.03477,2.349585 -0.151032,1.359288 1.771292,1.57288 1.922324,0.213591 z" /><path
   style="fill:#ffff00;fill-opacity:1;stroke:#ffff00;stroke-width:1.032;stroke-miterlimit:4;stroke-dasharray:none;stroke-opacity:1"
   id="path44510"
   d="m 77.92344,132.71829 c -0.0242,-0.85631 0.0099,-1.7074 0.127657,-2.55588 0.156735,-0.75958 0.174665,-1.54404 0.379114,-2.29289 0.247931,-0.69063 0.392535,-1.41227 0.642186,-2.10154 0.25485,-0.63614 0.403019,-1.30006 0.476476,-1.97919 0.103877,-0.61476 0.188221,-1.23172 0.239138,-1.85312 0.102699,-0.4909 0.184365,-0.9843 0.233869,-1.48337 0.0063,-0.49408 0.117418,-0.97407 0.182685,-1.46211 0.0851,-0.704 0.09007,-1.41437 0.09894,-2.12248 0.0055,-0.57965 0.0045,-1.15933 0.0038,-1.739 -8.63e-4,-0.57155 -0.001,-1.1431 -0.0012,-1.71465 -1.25e-4,-0.76436 -1.3e-4,-1.52872 -1.32e-4,-2.29309 2e-6,-0.71847 7e-6,-1.43695 1e-5,-2.15542 2e-6,-0.73912 2e-6,-1.47824 3e-6,-2.21736 -0.0043,-1.05233 0.03206,-2.10332 -0.06138,-3.15199 -0.114554,-1.22231 -0.301431,-2.43381 -0.479706,-3.647591 -0.07723,-0.592819 -0.104682,-1.189286 -0.183602,-1.781651 -0.186965,-1.354814 -2.102961,-1.090406 -1.915996,0.264408 v 0 c 0.08638,0.596833 0.09572,1.201709 0.186023,1.798634 0.173914,1.18135 0.356488,2.3603 0.467884,3.55004 0.102682,0.98549 0.03279,1.97849 0.05262,2.96815 -1e-6,0.73912 -1e-6,1.47823 -3e-6,2.21735 -3e-6,0.71848 -8e-6,1.43696 -1e-5,2.15544 2e-6,0.76451 7e-6,1.52901 1.32e-4,2.29352 1.31e-4,0.57215 3.19e-4,1.14431 0.0012,1.71646 6.64e-4,0.57088 0.0017,1.14178 -0.0036,1.71264 -0.0078,0.63117 -0.01007,1.26447 -0.08231,1.89231 -0.0669,0.50963 -0.182443,1.01295 -0.190359,1.52886 -0.04853,0.5101 -0.154224,1.00941 -0.236659,1.51463 -0.0486,0.60736 -0.139653,1.20877 -0.23519,1.81034 -0.05079,0.52618 -0.175867,1.03609 -0.373985,1.52748 -0.263291,0.74458 -0.435467,1.51612 -0.692147,2.26343 -0.210281,0.82902 -0.273444,1.68129 -0.424443,2.52237 -0.123871,0.93476 -0.1739,1.87221 -0.145129,2.81527 0,1.36765 1.934154,1.36765 1.934154,0 z" /><path
   style="fill:#ffff00;fill-opacity:1;stroke:#ffff00;stroke-width:1.032;stroke-miterlimit:4;stroke-dasharray:none;stroke-opacity:1"
   id="path44512"
   d="m 87.184909,33.982702 c -0.03207,0.343683 -0.08899,0.682753 -0.144084,1.023197 -0.07651,0.257021 -0.13911,0.516068 -0.175049,0.781885 -0.02519,0.236206 -0.08215,0.467144 -0.112809,0.703127 -0.02436,0.223697 -0.0206,0.446692 -0.06145,0.667596 -0.03116,0.212324 -0.1251,0.410127 -0.222258,0.599702 -0.148431,0.216417 -0.29219,0.438145 -0.462852,0.637893 -0.238961,0.308189 -0.480509,0.613113 -0.703138,0.933599 -0.199172,0.307009 -0.448519,0.575036 -0.663557,0.869752 -0.182669,0.288794 -0.437394,0.518466 -0.682911,0.752125 -0.243754,0.230667 -0.489235,0.459381 -0.717283,0.705686 -0.462747,0.503473 0.249271,1.157895 0.712018,0.654423 v 0 c 0.211412,-0.232302 0.445938,-0.441899 0.67206,-0.659665 0.288584,-0.274792 0.583226,-0.549249 0.800385,-0.886741 0.214202,-0.301941 0.475391,-0.569318 0.673575,-0.883904 0.206707,-0.297659 0.430912,-0.580952 0.652703,-0.867276 0.212222,-0.259728 0.407894,-0.533528 0.582389,-0.820236 0.136381,-0.273277 0.263516,-0.556682 0.310109,-0.861056 0.04343,-0.238788 0.05235,-0.477658 0.06948,-0.71925 0.02938,-0.234844 0.08983,-0.464157 0.112367,-0.699715 0.03239,-0.257005 0.110082,-0.502375 0.170904,-0.753601 0.05592,-0.346226 0.113821,-0.691362 0.14676,-1.040776 0.09671,-0.676954 -0.860649,-0.813719 -0.957357,-0.136765 z" /><path
   style="fill:#ffff00;fill-opacity:1;stroke:#ffff00;stroke-width:1.032;stroke-miterlimit:4;stroke-dasharray:none;stroke-opacity:1"
   id="path44514"
   d="m 83.864487,42.421008 c 0.170678,-0.36152 0.342754,-0.724546 0.549423,-1.067198 0.158938,-0.263765 0.375536,-0.479065 0.591996,-0.693968 0.192829,-0.206909 0.397663,-0.400778 0.601732,-0.596016 0.196633,-0.164636 0.364673,-0.360145 0.540131,-0.546485 0.211889,-0.22041 0.424143,-0.441716 0.598493,-0.693374 0.119062,-0.232155 0.223816,-0.469382 0.343962,-0.70094 0.148014,-0.280447 0.184013,-0.596569 0.25049,-0.901936 0.04328,-0.319068 0.245331,-0.578255 0.387196,-0.859674 0.185701,-0.393649 0.388693,-0.777096 0.533187,-1.188443 0.223959,-0.646112 -0.689782,-0.962838 -0.913741,-0.316726 v 0 c -0.126914,0.373068 -0.322145,0.714888 -0.484554,1.072935 -0.1749,0.35421 -0.418365,0.683016 -0.467037,1.086214 -0.04838,0.222297 -0.06982,0.45422 -0.164222,0.662764 -0.103284,0.199705 -0.205448,0.399259 -0.289086,0.608092 -0.131147,0.214837 -0.336062,0.37857 -0.498792,0.568158 -0.164491,0.174721 -0.321161,0.358715 -0.506286,0.512284 -0.206773,0.200111 -0.417577,0.395725 -0.613251,0.607277 -0.273191,0.271941 -0.54076,0.549596 -0.740024,0.883189 -0.217052,0.364869 -0.40485,0.747013 -0.584597,1.131357 -0.305817,0.611633 0.559163,1.044123 0.86498,0.43249 z" /><path
   style="fill:#ffff00;fill-opacity:1;stroke:#ffff00;stroke-width:1.032;stroke-miterlimit:4;stroke-dasharray:none;stroke-opacity:1"
   id="path44516"
   d="m 87.418492,34.662824 c -0.09627,0.373416 -0.213463,0.739646 -0.327356,1.10777 -0.04816,0.197427 -0.133304,0.391739 -0.241431,0.564221 -0.131305,0.183276 -0.262573,0.36663 -0.390193,0.55265 -0.131518,0.24402 -0.265529,0.484054 -0.41005,0.720776 -0.143393,0.232662 -0.356775,0.405513 -0.556749,0.586459 -0.240037,0.210218 -0.41884,0.474275 -0.574943,0.749705 -0.115014,0.247269 -0.234395,0.491558 -0.34847,0.739261 -0.155727,0.26999 -0.319188,0.531608 -0.440396,0.819591 -0.115876,0.307353 -0.123764,0.639103 -0.2058,0.95502 -0.07741,0.259625 -0.113291,0.530916 -0.208723,0.784994 -0.227262,0.644958 0.684847,0.966355 0.912109,0.321396 v 0 c 0.09737,-0.286059 0.158852,-0.580865 0.235096,-0.872961 0.06573,-0.271882 0.09486,-0.54992 0.161714,-0.820625 0.109952,-0.27843 0.293478,-0.516105 0.424985,-0.784149 0.102881,-0.224951 0.212584,-0.446034 0.314098,-0.671499 0.100909,-0.185981 0.220169,-0.36378 0.380081,-0.504449 0.26816,-0.243986 0.544942,-0.483923 0.732922,-0.799665 0.134834,-0.221969 0.267021,-0.443844 0.381595,-0.676787 0.142246,-0.20737 0.291186,-0.409664 0.431523,-0.618413 0.13354,-0.240975 0.264044,-0.490277 0.326675,-0.760249 0.118571,-0.385 0.240895,-0.768129 0.341515,-1.158496 0.165852,-0.663409 -0.77235,-0.89796 -0.938202,-0.23455 z" /><path
   style="fill:#ffff00;fill-opacity:1;stroke:#ffff00;stroke-width:1.032;stroke-miterlimit:4;stroke-dasharray:none;stroke-opacity:1"
   id="path44518"
   d="m 86.588767,35.347776 c -0.09074,0.354836 -0.21967,0.698193 -0.322513,1.049541 -0.06891,0.228894 -0.150749,0.452434 -0.283126,0.65254 -0.175194,0.287494 -0.307387,0.590837 -0.389651,0.916919 -0.04308,0.284498 -0.09676,0.56739 -0.136693,0.852502 -0.01707,0.2448 -0.09002,0.480255 -0.203673,0.696832 -0.128309,0.297003 -0.301614,0.569169 -0.464965,0.847373 -0.209298,0.382205 -0.431508,0.756014 -0.606129,1.155647 -0.196231,0.483175 -0.285521,0.997539 -0.425023,1.497284 -0.10747,0.37627 -0.20558,0.755654 -0.282446,1.139408 -0.0635,0.380563 -0.166236,0.754006 -0.262377,1.127559 -0.101915,0.483952 -0.229745,0.958605 -0.40287,1.421769 -0.238237,0.640986 0.668253,0.977903 0.90649,0.336918 v 0 c 0.183168,-0.495236 0.32551,-1.000931 0.43307,-1.518166 0.100126,-0.390754 0.206995,-0.7815 0.274166,-1.179335 0.07121,-0.36063 0.165636,-0.716467 0.265948,-1.069987 0.126037,-0.45797 0.210803,-0.927394 0.381128,-1.372643 0.154368,-0.36491 0.367154,-0.699589 0.552295,-1.04931 0.17353,-0.296436 0.356586,-0.587353 0.495,-0.902645 0.15359,-0.313749 0.270328,-0.646423 0.297239,-0.997452 0.03491,-0.253016 0.08555,-0.503463 0.118399,-0.756698 0.05142,-0.224583 0.14968,-0.427146 0.26542,-0.6259 0.175679,-0.280967 0.305681,-0.582797 0.396238,-0.901991 0.102448,-0.353221 0.233964,-0.69762 0.32394,-1.054488 0.187862,-0.657516 -0.742006,-0.923193 -0.929867,-0.265677 z" /></svg>
